<svg xmlns="http://www.w3.org/2000/svg" version="1.1" xmlns:xlink="http://www.w3.org/1999/xlink" xmlns:svgjs="http://svgjs.dev/svgjs" width="2000" height="1500" viewBox="0 0 2000 1500"><rect width="2000" height="1500" fill="#1b5f9b"></rect><g transform="matrix(0.75,0,0,0.75,249.090909090909,307.24168476268926)"><svg viewBox="0 0 396 234" data-background-color="#1b5f9b" preserveAspectRatio="xMidYMid meet" height="1181" width="2000" xmlns="http://www.w3.org/2000/svg" xmlns:xlink="http://www.w3.org/1999/xlink"><g id="tight-bounds" transform="matrix(1,0,0,1,0.2400000000000091,-0.03082611850894068)"><svg viewBox="0 0 395.52 234.06165223701788" height="234.06165223701788" width="395.52"><g><svg viewBox="0 0 395.52 234.06165223701788" height="234.06165223701788" width="395.52"><g transform="matrix(1,0,0,1,0,140.9015086823251)"><svg viewBox="0 0 395.52 93.1601435546928" height="93.1601435546928" width="395.52"><g id="textblocktransform"><svg viewBox="0 0 395.52 93.1601435546928" height="93.1601435546928" width="395.52" id="textblock"><g><svg viewBox="0 0 395.52 51.48422664624809" height="51.48422664624809" width="395.52"><g transform="matrix(1,0,0,1,0,0)"><svg width="395.52" viewBox="2 -39 359.12 46.75" height="51.48422664624809" data-palette-color="#ffffff"><path d="M9.7 0L9.7 0Q8.45 0 6.08 0 3.7 0 2.85-0.35 2-0.7 2-1.45L2-1.45 2-33Q2-34.15 5.08-34.83 8.15-35.5 11.65-35.5 15.15-35.5 16.65-34.6 18.15-33.7 18.4-32.7L18.4-32.7 21.8-19.5 22.25-19.5 25.45-32.1Q25.8-33.45 28.73-34.48 31.65-35.5 35.15-35.5 38.65-35.5 40.33-34.95 42-34.4 42-33.55L42-33.55 42-1.45Q42-0.8 39.15-0.4 36.3 0 32.2 0 28.1 0 28.1-1.45L28.1-1.45Q28.1-5.4 28.95-15.5L28.95-15.5 28.5-15.5 25.9-2.45Q25.75-1.7 24.68-1.35 23.6-1 21.45-1 19.3-1 18.82-1.3 18.35-1.6 18.2-2.45L18.2-2.45 15.5-15.5 15.05-15.5Q15.95-5.2 15.95-1.45L15.95-1.45Q15.95-0.15 9.7 0ZM59.95-1.45Q59.95-0.7 56.72-0.35 53.5 0 50.6 0 47.7 0 46.85-0.35 46-0.7 46-1.45L46-1.45 46-33.15Q46-34.45 47.3-35 48.6-35.55 52.2-35.55L52.2-35.55 70.75-35.55Q71.8-35.55 71.8-31.78 71.8-28 71.32-26.03 70.85-24.05 70.1-24.05L70.1-24.05 59.95-24.55 59.95-21.15Q66.6-21.45 68.85-21.45L68.85-21.45Q69.6-21.45 69.87-20.65 70.15-19.85 70.15-17.57 70.15-15.3 69.65-13.23 69.15-11.15 68.25-11.15L68.25-11.15 59.95-11.45 59.95-1.45ZM100.75-2.1Q99.25-1 96.57-0.28 93.9 0.45 89.67 0.45 85.45 0.45 81.64-0.25 77.84-0.95 76.2-1.8 74.55-2.65 74.55-3.45L74.55-3.45Q74.55-6.25 75.34-9.28 76.14-12.3 77.25-12.3L77.25-12.3Q77.45-12.3 81.39-10.95 85.34-9.6 87.34-9.6 89.34-9.6 89.95-10.03 90.55-10.45 90.55-11.25 90.55-12.05 89.45-12.68 88.34-13.3 86.7-13.78 85.05-14.25 83.12-15.15 81.2-16.05 79.55-17.15 77.89-18.25 76.8-20.28 75.7-22.3 75.7-24.9L75.7-24.9Q75.7-36 88.95-36L88.95-36Q93.9-36 97.5-35.38 101.09-34.75 102.57-33.98 104.05-33.2 104.05-32.45L104.05-32.45Q104.05-29.85 102.82-26.85 101.59-23.85 100.45-23.85L100.45-23.85Q100.25-23.85 99.15-24.3L99.15-24.3Q95.84-25.75 93.67-25.75 91.5-25.75 90.72-25.35 89.95-24.95 89.95-24.13 89.95-23.3 91.05-22.78 92.15-22.25 93.77-21.83 95.4-21.4 97.32-20.53 99.25-19.65 100.9-18.48 102.55-17.3 103.65-15.15 104.75-13 104.75-10.15L104.75-10.15Q104.75-7.15 103.2-4.7L103.2-4.7Q102.25-3.2 100.75-2.1ZM129.09-9.5L129.09-9.5 108.84-9.5Q108.29-9.5 107.89-10.43 107.49-11.35 107.49-13.08 107.49-14.8 108.59-16.57 109.69-18.35 110.74-18.35L110.74-18.35 130.84-18.35Q132.14-18.35 132.14-15.1L132.14-15.1Q132.14-13.45 131.09-11.48 130.04-9.5 129.09-9.5ZM148.89-36.7L148.89-36.7 148.89-1.2Q148.89-0.65 146.04-0.33 143.19 0 140.17 0 137.14 0 136.27-0.28 135.39-0.55 135.39-1.2L135.39-1.2 135.39-35.8Q135.39-36.9 138.22-37.95 141.04-39 144.29-39L144.29-39Q148.89-39 148.89-36.7ZM167.19-11.3L165.54-11.3Q165.54-8.05 168.64-8.05L168.64-8.05Q170.44-8.05 173.34-9.28 176.24-10.5 176.39-10.5L176.39-10.5Q177.34-10.5 178.89-7.65 180.44-4.8 180.44-3.45L180.44-3.45Q180.44-1.5 176.44-0.5 172.44 0.5 168.61 0.5 164.79 0.5 162.21-0.1 159.64-0.7 158.01-1.63 156.39-2.55 155.16-3.9 153.94-5.25 153.34-6.48 152.74-7.7 152.39-9.2L152.39-9.2Q151.89-11.4 151.89-13.75L151.89-13.75Q151.89-22.85 156.64-26.3L156.64-26.3Q158.99-28.05 161.89-28.75 164.79-29.45 168.74-29.45L168.74-29.45Q181.39-29.45 181.39-20.65L181.39-20.65Q181.39-11.3 167.19-11.3L167.19-11.3ZM165.44-18.6L165.44-18.6 165.44-15.3Q166.89-15.3 167.81-16.45 168.74-17.6 168.74-19.25L168.74-19.25Q168.74-22.25 167.19-22.25L167.19-22.25Q165.44-22.25 165.44-18.6ZM193.89 0.45L193.89 0.45Q189.34 0.45 186.74-1.7L186.74-1.7Q185.69-2.6 184.91-4.35 184.14-6.1 184.14-8.45 184.14-10.8 185.26-12.55 186.39-14.3 187.99-15.25 189.59-16.2 191.74-16.8L191.74-16.8Q194.99-17.65 198.89-17.65L198.89-17.65 200.54-17.65Q200.54-19.7 199.14-20.55L199.14-20.55Q198.54-20.9 197.31-20.9 196.09-20.9 194.36-20.25 192.64-19.6 191.49-18.93 190.34-18.25 189.94-18.25L189.94-18.25Q189.04-18.25 187.49-20.63 185.94-23 185.94-24.95L185.94-24.95Q185.94-25.6 187.79-26.65 189.64-27.7 193.01-28.58 196.39-29.45 199.59-29.45 202.79-29.45 205.11-28.93 207.44-28.4 208.91-27.65 210.39-26.9 211.41-25.65 212.44-24.4 212.96-23.4 213.49-22.4 213.74-20.8L213.74-20.8Q214.09-18.95 214.09-16.25L214.09-16.25 214.09-1.2Q214.09-0.65 211.41-0.33 208.74 0 206.11 0 203.49 0 202.71-0.15 201.94-0.3 201.79-0.5 201.64-0.7 201.54-1.2L201.54-1.2 201.14-4.05 200.74-4.05Q199.49 0.45 193.89 0.45ZM200.59-7.85L200.59-7.85 200.59-13.7Q199.29-13.7 198.49-12.6 197.69-11.5 197.69-10.1L197.69-10.1Q197.69-6.8 199.19-6.8L199.19-6.8Q199.84-6.8 200.21-7.13 200.59-7.45 200.59-7.85ZM231.08-15.8L231.08-15.8 231.08-1.2Q231.08-0.65 228.26-0.33 225.43 0 222.41 0 219.38 0 218.48-0.28 217.58-0.55 217.58-1.2L217.58-1.2 217.58-25.85Q217.58-26.8 220.36-27.9 223.13-29 226.41-29 229.68-29 230.08-27.2L230.08-27.2 230.58-24.9 230.93-24.9Q231.63-26.8 234.28-28.13 236.93-29.45 239.58-29.45 242.23-29.45 243.31-28.6 244.38-27.75 244.38-26.43 244.38-25.1 244.18-23.05 243.98-21 243.21-18.6 242.43-16.2 241.18-16.2L241.18-16.2Q240.68-16.2 238.03-16.95 235.38-17.7 233.66-17.7 231.93-17.7 231.51-17.2 231.08-16.7 231.08-15.8ZM277.03-16.6L277.03-16.6 277.03-1.2Q277.03-0.65 274.18-0.33 271.33 0 268.31 0 265.28 0 264.41-0.28 263.53-0.55 263.53-1.2L263.53-1.2 263.53-17.1Q263.53-19.35 263.36-20.05 263.18-20.75 263.03-21.3L263.03-21.3Q262.68-22.25 261.78-22.25L261.78-22.25Q260.38-22.25 260.38-20.9L260.38-20.9 260.38-1.2Q260.38-0.65 257.56-0.33 254.73 0 251.71 0 248.68 0 247.78-0.28 246.88-0.55 246.88-1.2L246.88-1.2 246.88-25.85Q246.88-26.9 249.76-27.95 252.63-29 255.83-29 259.03-29 259.43-27.15L259.43-27.15 259.88-24.95 260.23-24.95Q261.68-27.85 265.23-29L265.23-29Q266.68-29.45 268.43-29.45L268.43-29.45Q273.48-29.45 275.26-26.43 277.03-23.4 277.03-16.6ZM294.28-25.85L294.28-25.85 294.28-1.2Q294.28-0.65 291.4-0.33 288.53 0 285.5 0 282.48 0 281.6-0.28 280.73-0.55 280.73-1.2L280.73-1.2 280.73-24.95Q280.73-26.05 283.55-27.13 286.38-28.2 289.73-28.2L289.73-28.2Q294.28-28.2 294.28-25.85ZM287.48-39L287.48-39Q290.78-39 292.65-38.02 294.53-37.05 294.53-34.5L294.53-34.5Q294.53-30 287.53-30 280.53-30 280.53-34.5 280.53-39 287.48-39ZM328.18-16.6L328.18-16.6 328.18-1.2Q328.18-0.65 325.33-0.33 322.48 0 319.45 0 316.43 0 315.55-0.28 314.68-0.55 314.68-1.2L314.68-1.2 314.68-17.1Q314.68-19.35 314.5-20.05 314.33-20.75 314.18-21.3L314.18-21.3Q313.83-22.25 312.93-22.25L312.93-22.25Q311.53-22.25 311.53-20.9L311.53-20.9 311.53-1.2Q311.53-0.65 308.7-0.33 305.88 0 302.85 0 299.83 0 298.93-0.28 298.03-0.55 298.03-1.2L298.03-1.2 298.03-25.85Q298.03-26.9 300.9-27.95 303.78-29 306.98-29 310.18-29 310.58-27.15L310.58-27.15 311.03-24.95 311.38-24.95Q312.83-27.85 316.38-29L316.38-29Q317.83-29.45 319.58-29.45L319.58-29.45Q324.63-29.45 326.4-26.43 328.18-23.4 328.18-16.6ZM348.37-3.3L348.37-3.3 348.37-6.2 347.97-6.2Q347.77-5.95 347.27-5.58 346.77-5.2 344.8-4.55 342.82-3.9 340.35-3.9 337.87-3.9 336.17-4.65 334.47-5.4 333.52-6.53 332.57-7.65 332.02-9.55L332.02-9.55Q331.17-12.5 331.17-17.55L331.17-17.55Q331.17-23.35 333.62-26.45L333.62-26.45Q334.57-27.7 336.45-28.58 338.32-29.45 340.47-29.45 342.62-29.45 344.02-28.98 345.42-28.5 346.12-27.85L346.12-27.85Q347.52-26.45 347.72-25.4L347.72-25.4 347.77-24.95 348.17-24.95 348.62-26.9Q349.12-29 356.52-29L356.52-29Q359.82-29 360.52-28L360.52-28Q360.92-27.4 361.02-26.88 361.12-26.35 361.12-25.3L361.12-25.3 361.12-4.35Q361.12 1.55 357.27 4.65 353.42 7.75 345.97 7.75L345.97 7.75Q338.07 7.75 335.22 6.2L335.22 6.2Q333.97 5.5 333.97 4.75L333.97 4.75Q333.97 3.55 334.95 0.7 335.92-2.15 336.77-2.15L336.77-2.15Q336.97-2.15 338.17-1.8L338.17-1.8Q341.97-0.8 344.35-0.8 346.72-0.8 347.55-1.4 348.37-2 348.37-3.3ZM346.37-9.6L346.37-9.6Q346.92-9.6 347.27-10 347.62-10.4 347.62-10.9L347.62-10.9 347.62-21.2Q347.42-22.25 346.52-22.25L346.52-22.25Q344.62-22.25 344.62-16L344.62-16Q344.62-13.1 345.1-11.35 345.57-9.6 346.37-9.6Z" opacity="1" transform="matrix(1,0,0,1,0,0)" fill="#ffffff" class="wordmark-text-0" data-fill-palette-color="primary" id="text-0"></path></svg></g></svg></g><g transform="matrix(1,0,0,1,0,63.638416935987756)"><svg viewBox="0 0 395.52 29.52172661870504" height="29.52172661870504" width="395.52"><g transform="matrix(1,0,0,1,0,0)"><svg width="395.52" viewBox="0.35 -37.43 611.54 45.65" height="29.52172661870504" data-palette-color="#ffffff"><path d="M25.4-32.95L23.3-29.03Q22.93-28.43 22.51-28.13 22.1-27.83 21.45-27.83L21.45-27.83Q20.88-27.83 20.21-28.19 19.55-28.55 18.71-29 17.88-29.45 16.8-29.81 15.73-30.18 14.35-30.18L14.35-30.18Q11.98-30.18 10.81-29.16 9.65-28.15 9.65-26.43L9.65-26.43Q9.65-25.33 10.35-24.6 11.05-23.88 12.19-23.35 13.33-22.83 14.79-22.39 16.25-21.95 17.78-21.41 19.3-20.88 20.76-20.15 22.23-19.43 23.36-18.3 24.5-17.18 25.2-15.56 25.9-13.95 25.9-11.68L25.9-11.68Q25.9-9.15 25.03-6.95 24.15-4.75 22.49-3.11 20.83-1.48 18.39-0.54 15.95 0.4 12.85 0.4L12.85 0.4Q11.15 0.4 9.39 0.05 7.63-0.3 5.98-0.94 4.33-1.58 2.88-2.45 1.43-3.33 0.35-4.4L0.35-4.4 2.85-8.35Q3.13-8.8 3.63-9.08 4.13-9.35 4.7-9.35L4.7-9.35Q5.45-9.35 6.21-8.88 6.98-8.4 7.94-7.83 8.9-7.25 10.15-6.78 11.4-6.3 13.1-6.3L13.1-6.3Q15.4-6.3 16.68-7.31 17.95-8.33 17.95-10.53L17.95-10.53Q17.95-11.8 17.25-12.6 16.55-13.4 15.41-13.93 14.28-14.45 12.83-14.85 11.38-15.25 9.85-15.74 8.33-16.23 6.88-16.94 5.43-17.65 4.29-18.81 3.15-19.98 2.45-21.71 1.75-23.45 1.75-26L1.75-26Q1.75-28.05 2.58-30 3.4-31.95 5-33.48 6.6-35 8.93-35.91 11.25-36.83 14.25-36.83L14.25-36.83Q15.93-36.83 17.51-36.56 19.1-36.3 20.53-35.79 21.95-35.27 23.19-34.56 24.43-33.85 25.4-32.95L25.4-32.95ZM29.6-25.93L37.35-25.93 37.35-9.47Q37.35-7.55 38.22-6.5 39.1-5.45 40.8-5.45L40.8-5.45Q42.07-5.45 43.19-5.98 44.3-6.5 45.35-7.45L45.35-7.45 45.35-25.93 53.1-25.93 53.1 0 48.3 0Q46.85 0 46.4-1.3L46.4-1.3 45.92-2.8Q45.17-2.08 44.37-1.49 43.57-0.9 42.66-0.49 41.75-0.08 40.7 0.16 39.65 0.4 38.4 0.4L38.4 0.4Q36.27 0.4 34.63-0.34 33-1.07 31.87-2.4 30.75-3.73 30.17-5.53 29.6-7.33 29.6-9.47L29.6-9.47 29.6-25.93ZM66.84 8.22L59.09 8.22 59.09-25.93 63.89-25.93Q64.62-25.93 65.11-25.6 65.59-25.28 65.8-24.63L65.8-24.63 66.37-22.73Q67.12-23.55 67.98-24.23 68.84-24.9 69.83-25.39 70.82-25.88 71.96-26.15 73.09-26.43 74.44-26.43L74.44-26.43Q76.47-26.43 78.19-25.53 79.92-24.63 81.17-22.93 82.42-21.23 83.13-18.76 83.84-16.3 83.84-13.18L83.84-13.18Q83.84-10.25 83.03-7.78 82.22-5.3 80.76-3.48 79.3-1.65 77.26-0.63 75.22 0.4 72.75 0.4L72.75 0.4Q70.72 0.4 69.34-0.18 67.97-0.75 66.84-1.73L66.84-1.73 66.84 8.22ZM71.75-20.5L71.75-20.5Q70.89-20.5 70.21-20.34 69.52-20.18 68.93-19.88 68.34-19.58 67.84-19.11 67.34-18.65 66.84-18.05L66.84-18.05 66.84-7.05Q67.72-6.08 68.75-5.69 69.77-5.3 70.89-5.3L70.89-5.3Q71.97-5.3 72.87-5.73 73.77-6.15 74.43-7.09 75.09-8.03 75.47-9.53 75.84-11.03 75.84-13.18L75.84-13.18Q75.84-15.23 75.55-16.63 75.25-18.03 74.71-18.89 74.17-19.75 73.42-20.13 72.67-20.5 71.75-20.5ZM99.09-26.33L99.09-26.33Q101.67-26.33 103.81-25.53 105.94-24.73 107.48-23.2 109.02-21.68 109.88-19.46 110.74-17.25 110.74-14.45L110.74-14.45Q110.74-13.58 110.67-13.03 110.59-12.48 110.39-12.15 110.19-11.83 109.86-11.7 109.52-11.58 108.99-11.58L108.99-11.58 94.04-11.58Q94.42-8.33 96.02-6.86 97.62-5.4 100.14-5.4L100.14-5.4Q101.49-5.4 102.47-5.73 103.44-6.05 104.21-6.45 104.97-6.85 105.61-7.18 106.24-7.5 106.94-7.5L106.94-7.5Q107.87-7.5 108.34-6.83L108.34-6.83 110.59-4.05Q109.39-2.68 108.01-1.81 106.62-0.95 105.16-0.46 103.69 0.03 102.23 0.21 100.77 0.4 99.44 0.4L99.44 0.4Q96.72 0.4 94.33-0.49 91.94-1.38 90.16-3.13 88.37-4.88 87.33-7.48 86.29-10.08 86.29-13.53L86.29-13.53Q86.29-16.13 87.18-18.45 88.07-20.78 89.73-22.53 91.39-24.28 93.76-25.3 96.12-26.33 99.09-26.33ZM99.24-20.98L99.24-20.98Q97.02-20.98 95.77-19.71 94.52-18.45 94.12-16.07L94.12-16.07 103.79-16.07Q103.79-17 103.56-17.88 103.32-18.75 102.78-19.44 102.24-20.13 101.37-20.55 100.49-20.98 99.24-20.98ZM122.94 0L115.19 0 115.19-25.93 119.79-25.93Q120.37-25.93 120.75-25.83 121.14-25.73 121.4-25.51 121.67-25.3 121.8-24.95 121.94-24.6 122.04-24.1L122.04-24.1 122.47-21.68Q123.89-23.88 125.67-25.15 127.44-26.43 129.54-26.43L129.54-26.43Q131.31-26.43 132.39-25.58L132.39-25.58 131.39-19.88Q131.29-19.35 130.99-19.14 130.69-18.93 130.19-18.93L130.19-18.93Q129.77-18.93 129.19-19.04 128.62-19.15 127.74-19.15L127.74-19.15Q124.69-19.15 122.94-15.9L122.94-15.9 122.94 0ZM144.74 0L136.99 0 136.99-20.6 135.29-20.95Q134.41-21.15 133.88-21.58 133.34-22 133.34-22.83L133.34-22.83 133.34-25.88 136.99-25.88 136.99-27.35Q136.99-29.58 137.7-31.38 138.41-33.18 139.75-34.45 141.09-35.73 143.01-36.43 144.94-37.13 147.39-37.13L147.39-37.13Q148.34-37.13 149.15-37.01 149.96-36.9 150.84-36.65L150.84-36.65 150.69-32.88Q150.66-32.48 150.47-32.21 150.29-31.95 150.01-31.79 149.74-31.63 149.4-31.55 149.06-31.48 148.74-31.48L148.74-31.48Q147.71-31.48 146.91-31.28 146.11-31.08 145.58-30.56 145.04-30.05 144.76-29.21 144.49-28.38 144.49-27.1L144.49-27.1 144.49-25.88 150.59-25.88 150.59-20.58 144.74-20.58 144.74 0ZM175.38 0L171.84 0Q170.74 0 170.17-0.3 169.61-0.6 169.24-1.55L169.24-1.55 168.69-2.98Q167.71-2.15 166.81-1.53 165.91-0.9 164.95-0.46 163.99-0.03 162.9 0.19 161.81 0.4 160.49 0.4L160.49 0.4Q158.71 0.4 157.26-0.06 155.81-0.53 154.8-1.43 153.78-2.33 153.24-3.66 152.69-5 152.69-6.75L152.69-6.75Q152.69-8.13 153.38-9.58 154.09-11.03 155.81-12.21 157.53-13.4 160.46-14.2 163.38-15 167.84-15.1L167.84-15.1 167.84-16.2Q167.84-18.48 166.9-19.49 165.96-20.5 164.24-20.5L164.24-20.5Q162.86-20.5 161.99-20.2 161.11-19.9 160.42-19.53 159.74-19.15 159.09-18.85 158.44-18.55 157.53-18.55L157.53-18.55Q156.74-18.55 156.17-18.94 155.61-19.33 155.28-19.9L155.28-19.9 153.88-22.33Q156.24-24.4 159.1-25.41 161.96-26.43 165.24-26.43L165.24-26.43Q167.59-26.43 169.47-25.66 171.36-24.9 172.67-23.54 173.99-22.18 174.69-20.3 175.38-18.43 175.38-16.2L175.38-16.2 175.38 0ZM162.94-4.73L162.94-4.73Q164.44-4.73 165.56-5.25 166.69-5.78 167.84-6.95L167.84-6.95 167.84-10.55Q165.51-10.45 164.01-10.15 162.51-9.85 161.63-9.4 160.76-8.95 160.42-8.38 160.09-7.8 160.09-7.13L160.09-7.13Q160.09-5.8 160.81-5.26 161.53-4.73 162.94-4.73ZM198.48-22.98L196.73-20.25Q196.43-19.78 196.09-19.58 195.76-19.38 195.23-19.38L195.23-19.38Q194.68-19.38 194.13-19.61 193.58-19.85 192.94-20.13 192.31-20.4 191.51-20.64 190.71-20.88 189.68-20.88L189.68-20.88Q188.21-20.88 187.42-20.31 186.63-19.75 186.63-18.75L186.63-18.75Q186.63-18.03 187.14-17.55 187.66-17.07 188.51-16.71 189.36-16.35 190.43-16.03 191.51-15.7 192.63-15.3 193.76-14.9 194.83-14.36 195.91-13.83 196.76-13.04 197.61-12.25 198.12-11.13 198.63-10 198.63-8.43L198.63-8.43Q198.63-6.5 197.93-4.88 197.23-3.25 195.84-2.08 194.46-0.9 192.42-0.25 190.38 0.4 187.73 0.4L187.73 0.4Q186.41 0.4 185.08 0.15 183.76-0.1 182.52-0.53 181.28-0.95 180.23-1.54 179.18-2.13 178.43-2.8L178.43-2.8 180.23-5.65Q180.56-6.15 181.01-6.44 181.46-6.73 182.18-6.73L182.18-6.73Q182.86-6.73 183.39-6.43 183.93-6.13 184.56-5.78 185.18-5.43 186.02-5.13 186.86-4.83 188.13-4.83L188.13-4.83Q189.03-4.83 189.66-5.01 190.28-5.2 190.66-5.53 191.03-5.85 191.21-6.25 191.38-6.65 191.38-7.08L191.38-7.08Q191.38-7.85 190.86-8.35 190.33-8.85 189.48-9.21 188.63-9.58 187.54-9.89 186.46-10.2 185.33-10.6 184.21-11 183.12-11.56 182.03-12.13 181.18-12.99 180.33-13.85 179.81-15.1 179.28-16.35 179.28-18.13L179.28-18.13Q179.28-19.78 179.92-21.26 180.56-22.75 181.83-23.88 183.11-25 185.03-25.66 186.96-26.33 189.53-26.33L189.53-26.33Q190.93-26.33 192.25-26.08 193.56-25.83 194.71-25.38 195.86-24.93 196.81-24.31 197.76-23.7 198.48-22.98L198.48-22.98ZM211.98 0.4L211.98 0.4Q210.13 0.4 208.72-0.14 207.31-0.68 206.34-1.66 205.38-2.65 204.88-4.05 204.38-5.45 204.38-7.18L204.38-7.18 204.38-20.58 202.18-20.58Q201.58-20.58 201.16-20.96 200.73-21.35 200.73-22.1L200.73-22.1 200.73-25.13 204.85-25.93 206.38-32.25Q206.68-33.45 208.08-33.45L208.08-33.45 212.13-33.45 212.13-25.88 218.43-25.88 218.43-20.58 212.13-20.58 212.13-7.7Q212.13-6.8 212.57-6.21 213-5.63 213.83-5.63L213.83-5.63Q214.25-5.63 214.54-5.71 214.83-5.8 215.04-5.91 215.25-6.03 215.44-6.11 215.63-6.2 215.88-6.2L215.88-6.2Q216.23-6.2 216.44-6.04 216.66-5.88 216.88-5.53L216.88-5.53 219.23-1.85Q217.73-0.73 215.85-0.16 213.98 0.4 211.98 0.4ZM253.98 0L250.43 0Q249.33 0 248.76-0.3 248.2-0.6 247.83-1.55L247.83-1.55 247.28-2.98Q246.3-2.15 245.4-1.53 244.5-0.9 243.54-0.46 242.58-0.03 241.49 0.19 240.4 0.4 239.08 0.4L239.08 0.4Q237.3 0.4 235.85-0.06 234.4-0.53 233.39-1.43 232.38-2.33 231.83-3.66 231.28-5 231.28-6.75L231.28-6.75Q231.28-8.13 231.97-9.58 232.68-11.03 234.4-12.21 236.13-13.4 239.05-14.2 241.97-15 246.43-15.1L246.43-15.1 246.43-16.2Q246.43-18.48 245.49-19.49 244.55-20.5 242.83-20.5L242.83-20.5Q241.45-20.5 240.58-20.2 239.7-19.9 239.01-19.53 238.33-19.15 237.68-18.85 237.03-18.55 236.13-18.55L236.13-18.55Q235.33-18.55 234.76-18.94 234.2-19.33 233.88-19.9L233.88-19.9 232.47-22.33Q234.83-24.4 237.69-25.41 240.55-26.43 243.83-26.43L243.83-26.43Q246.18-26.43 248.06-25.66 249.95-24.9 251.26-23.54 252.58-22.18 253.28-20.3 253.98-18.43 253.98-16.2L253.98-16.2 253.98 0ZM241.53-4.73L241.53-4.73Q243.03-4.73 244.15-5.25 245.28-5.78 246.43-6.95L246.43-6.95 246.43-10.55Q244.1-10.45 242.6-10.15 241.1-9.85 240.22-9.4 239.35-8.95 239.01-8.38 238.68-7.8 238.68-7.13L238.68-7.13Q238.68-5.8 239.4-5.26 240.13-4.73 241.53-4.73ZM267.22 0L259.47 0 259.47-25.93 264.27-25.93Q265-25.93 265.49-25.6 265.97-25.28 266.17-24.63L266.17-24.63 266.62-23.13Q267.37-23.83 268.17-24.43 268.97-25.03 269.89-25.44 270.8-25.85 271.86-26.09 272.92-26.33 274.17-26.33L274.17-26.33Q276.3-26.33 277.94-25.59 279.57-24.85 280.7-23.54 281.82-22.23 282.4-20.41 282.97-18.6 282.97-16.48L282.97-16.48 282.97 0 275.22 0 275.22-16.48Q275.22-18.38 274.35-19.44 273.47-20.5 271.77-20.5L271.77-20.5Q270.5-20.5 269.37-19.95 268.25-19.4 267.22-18.48L267.22-18.48 267.22 0ZM311.47 0L306.67 0Q305.95 0 305.46-0.33 304.97-0.65 304.77-1.3L304.77-1.3 304.17-3.28Q303.4-2.45 302.55-1.78 301.7-1.1 300.71-0.61 299.72-0.13 298.58 0.14 297.45 0.4 296.12 0.4L296.12 0.4Q294.1 0.4 292.37-0.5 290.65-1.4 289.4-3.1 288.15-4.8 287.43-7.26 286.72-9.73 286.72-12.88L286.72-12.88Q286.72-15.78 287.52-18.26 288.32-20.75 289.78-22.56 291.25-24.38 293.3-25.4 295.35-26.43 297.82-26.43L297.82-26.43Q299.82-26.43 301.21-25.84 302.6-25.25 303.72-24.3L303.72-24.3 303.72-37.43 311.47-37.43 311.47 0ZM298.82-5.55L298.82-5.55Q299.67-5.55 300.36-5.71 301.05-5.88 301.62-6.18 302.2-6.48 302.71-6.93 303.22-7.38 303.72-7.98L303.72-7.98 303.72-18.98Q302.82-19.95 301.81-20.34 300.8-20.73 299.67-20.73L299.67-20.73Q298.6-20.73 297.7-20.3 296.8-19.88 296.13-18.94 295.47-18 295.1-16.5 294.72-15 294.72-12.88L294.72-12.88Q294.72-10.83 295.02-9.43 295.32-8.03 295.86-7.16 296.4-6.3 297.15-5.93 297.9-5.55 298.82-5.55ZM344.72-22.98L342.97-20.25Q342.67-19.78 342.33-19.58 341.99-19.38 341.47-19.38L341.47-19.38Q340.92-19.38 340.37-19.61 339.81-19.85 339.18-20.13 338.54-20.4 337.74-20.64 336.94-20.88 335.92-20.88L335.92-20.88Q334.44-20.88 333.65-20.31 332.87-19.75 332.87-18.75L332.87-18.75Q332.87-18.03 333.38-17.55 333.89-17.07 334.74-16.71 335.59-16.35 336.67-16.03 337.74-15.7 338.87-15.3 339.99-14.9 341.06-14.36 342.14-13.83 342.99-13.04 343.84-12.25 344.35-11.13 344.87-10 344.87-8.43L344.87-8.43Q344.87-6.5 344.17-4.88 343.47-3.25 342.08-2.08 340.69-0.9 338.65-0.25 336.62 0.4 333.97 0.4L333.97 0.4Q332.64 0.4 331.31 0.15 329.99-0.1 328.75-0.53 327.51-0.95 326.47-1.54 325.42-2.13 324.67-2.8L324.67-2.8 326.47-5.65Q326.79-6.15 327.24-6.44 327.69-6.73 328.42-6.73L328.42-6.73Q329.09-6.73 329.63-6.43 330.17-6.13 330.79-5.78 331.42-5.43 332.25-5.13 333.09-4.83 334.37-4.83L334.37-4.83Q335.26-4.83 335.89-5.01 336.51-5.2 336.89-5.53 337.26-5.85 337.44-6.25 337.62-6.65 337.62-7.08L337.62-7.08Q337.62-7.85 337.09-8.35 336.56-8.85 335.72-9.21 334.87-9.58 333.78-9.89 332.69-10.2 331.56-10.6 330.44-11 329.35-11.56 328.26-12.13 327.42-12.99 326.56-13.85 326.04-15.1 325.51-16.35 325.51-18.13L325.51-18.13Q325.51-19.78 326.15-21.26 326.79-22.75 328.06-23.88 329.34-25 331.26-25.66 333.19-26.33 335.76-26.33L335.76-26.33Q337.17-26.33 338.48-26.08 339.79-25.83 340.94-25.38 342.09-24.93 343.04-24.31 343.99-23.7 344.72-22.98L344.72-22.98ZM360.21-26.33L360.21-26.33Q362.79-26.33 364.93-25.53 367.06-24.73 368.6-23.2 370.14-21.68 371-19.46 371.86-17.25 371.86-14.45L371.86-14.45Q371.86-13.58 371.79-13.03 371.71-12.48 371.51-12.15 371.31-11.83 370.98-11.7 370.64-11.58 370.11-11.58L370.11-11.58 355.16-11.58Q355.54-8.33 357.14-6.86 358.74-5.4 361.26-5.4L361.26-5.4Q362.61-5.4 363.59-5.73 364.56-6.05 365.32-6.45 366.09-6.85 366.73-7.18 367.36-7.5 368.06-7.5L368.06-7.5Q368.99-7.5 369.46-6.83L369.46-6.83 371.71-4.05Q370.51-2.68 369.13-1.81 367.74-0.95 366.28-0.46 364.81 0.03 363.35 0.21 361.89 0.4 360.56 0.4L360.56 0.4Q357.84 0.4 355.45-0.49 353.06-1.38 351.28-3.13 349.49-4.88 348.45-7.48 347.41-10.08 347.41-13.53L347.41-13.53Q347.41-16.13 348.3-18.45 349.19-20.78 350.85-22.53 352.51-24.28 354.88-25.3 357.24-26.33 360.21-26.33ZM360.36-20.98L360.36-20.98Q358.14-20.98 356.89-19.71 355.64-18.45 355.24-16.07L355.24-16.07 364.91-16.07Q364.91-17 364.68-17.88 364.44-18.75 363.9-19.44 363.36-20.13 362.49-20.55 361.61-20.98 360.36-20.98ZM397.06-22.5L395.01-19.78Q394.66-19.35 394.33-19.1 394.01-18.85 393.41-18.85L393.41-18.85Q392.83-18.85 392.37-19.13 391.91-19.4 391.33-19.74 390.76-20.08 389.99-20.35 389.21-20.63 388.06-20.63L388.06-20.63Q386.63-20.63 385.6-20.1 384.56-19.58 383.88-18.6 383.21-17.63 382.88-16.21 382.56-14.8 382.56-13.03L382.56-13.03Q382.56-9.3 384-7.3 385.44-5.3 387.96-5.3L387.96-5.3Q389.31-5.3 390.1-5.64 390.88-5.98 391.44-6.39 391.99-6.8 392.45-7.15 392.91-7.5 393.61-7.5L393.61-7.5Q394.54-7.5 395.01-6.83L395.01-6.83 397.26-4.05Q396.06-2.68 394.74-1.81 393.41-0.95 392.02-0.46 390.63 0.03 389.24 0.21 387.83 0.4 386.51 0.4L386.51 0.4Q384.13 0.4 381.97-0.5 379.81-1.4 378.17-3.11 376.54-4.83 375.57-7.33 374.61-9.83 374.61-13.03L374.61-13.03Q374.61-15.83 375.45-18.26 376.29-20.7 377.92-22.49 379.56-24.28 381.97-25.3 384.38-26.33 387.56-26.33L387.56-26.33Q390.61-26.33 392.91-25.35 395.21-24.38 397.06-22.5L397.06-22.5ZM400.11-25.93L407.86-25.93 407.86-9.47Q407.86-7.55 408.73-6.5 409.61-5.45 411.31-5.45L411.31-5.45Q412.58-5.45 413.69-5.98 414.81-6.5 415.86-7.45L415.86-7.45 415.86-25.93 423.61-25.93 423.61 0 418.81 0Q417.36 0 416.91-1.3L416.91-1.3 416.43-2.8Q415.68-2.08 414.88-1.49 414.08-0.9 413.17-0.49 412.26-0.08 411.21 0.16 410.16 0.4 408.91 0.4L408.91 0.4Q406.78 0.4 405.15-0.34 403.51-1.07 402.38-2.4 401.26-3.73 400.68-5.53 400.11-7.33 400.11-9.47L400.11-9.47 400.11-25.93ZM437.36 0L429.61 0 429.61-25.93 434.21-25.93Q434.78-25.93 435.17-25.83 435.56-25.73 435.82-25.51 436.08-25.3 436.22-24.95 436.36-24.6 436.46-24.1L436.46-24.1 436.88-21.68Q438.31-23.88 440.08-25.15 441.86-26.43 443.96-26.43L443.96-26.43Q445.73-26.43 446.81-25.58L446.81-25.58 445.81-19.88Q445.71-19.35 445.41-19.14 445.11-18.93 444.61-18.93L444.61-18.93Q444.18-18.93 443.61-19.04 443.03-19.15 442.16-19.15L442.16-19.15Q439.11-19.15 437.36-15.9L437.36-15.9 437.36 0ZM461.35-26.33L461.35-26.33Q463.93-26.33 466.06-25.53 468.2-24.73 469.74-23.2 471.28-21.68 472.14-19.46 473-17.25 473-14.45L473-14.45Q473-13.58 472.93-13.03 472.85-12.48 472.65-12.15 472.45-11.83 472.12-11.7 471.78-11.58 471.25-11.58L471.25-11.58 456.3-11.58Q456.68-8.33 458.28-6.86 459.88-5.4 462.4-5.4L462.4-5.4Q463.75-5.4 464.73-5.73 465.7-6.05 466.46-6.45 467.23-6.85 467.87-7.18 468.5-7.5 469.2-7.5L469.2-7.5Q470.13-7.5 470.6-6.83L470.6-6.83 472.85-4.05Q471.65-2.68 470.26-1.81 468.88-0.95 467.42-0.46 465.95 0.03 464.49 0.21 463.03 0.4 461.7 0.4L461.7 0.4Q458.98 0.4 456.59-0.49 454.2-1.38 452.42-3.13 450.63-4.88 449.59-7.48 448.55-10.08 448.55-13.53L448.55-13.53Q448.55-16.13 449.44-18.45 450.33-20.78 451.99-22.53 453.65-24.28 456.01-25.3 458.38-26.33 461.35-26.33ZM461.5-20.98L461.5-20.98Q459.28-20.98 458.03-19.71 456.78-18.45 456.38-16.07L456.38-16.07 466.05-16.07Q466.05-17 465.81-17.88 465.58-18.75 465.04-19.44 464.5-20.13 463.63-20.55 462.75-20.98 461.5-20.98ZM500.45 0L495.65 0Q494.93 0 494.44-0.33 493.95-0.65 493.75-1.3L493.75-1.3 493.15-3.28Q492.38-2.45 491.52-1.78 490.68-1.1 489.69-0.61 488.7-0.13 487.56 0.14 486.43 0.4 485.1 0.4L485.1 0.4Q483.07 0.4 481.35-0.5 479.63-1.4 478.38-3.1 477.13-4.8 476.41-7.26 475.7-9.73 475.7-12.88L475.7-12.88Q475.7-15.78 476.5-18.26 477.3-20.75 478.76-22.56 480.22-24.38 482.27-25.4 484.32-26.43 486.8-26.43L486.8-26.43Q488.8-26.43 490.19-25.84 491.57-25.25 492.7-24.3L492.7-24.3 492.7-37.43 500.45-37.43 500.45 0ZM487.8-5.55L487.8-5.55Q488.65-5.55 489.34-5.71 490.02-5.88 490.6-6.18 491.18-6.48 491.69-6.93 492.2-7.38 492.7-7.98L492.7-7.98 492.7-18.98Q491.8-19.95 490.79-20.34 489.77-20.73 488.65-20.73L488.65-20.73Q487.57-20.73 486.68-20.3 485.77-19.88 485.11-18.94 484.45-18 484.07-16.5 483.7-15 483.7-12.88L483.7-12.88Q483.7-10.83 484-9.43 484.3-8.03 484.84-7.16 485.38-6.3 486.13-5.93 486.88-5.55 487.8-5.55ZM524.54-36.43L524.54-6.75 538.04-6.75 538.04 0 516.09 0 516.09-36.43 524.54-36.43ZM560.67-16.65L560.67-16.65Q561.17-15.7 561.63-14.68 562.09-13.65 562.52-12.58L562.52-12.58Q562.94-13.68 563.42-14.71 563.89-15.75 564.39-16.73L564.39-16.73 573.74-35.13Q573.99-35.6 574.25-35.86 574.52-36.13 574.84-36.25 575.17-36.38 575.58-36.4 575.99-36.43 576.54-36.43L576.54-36.43 582.99-36.43 582.99 0 575.54 0 575.54-20.95Q575.54-22.48 575.69-24.25L575.69-24.25 566.04-5.53Q565.59-4.65 564.83-4.2 564.07-3.75 563.09-3.75L563.09-3.75 561.94-3.75Q560.97-3.75 560.2-4.2 559.44-4.65 558.99-5.53L558.99-5.53 549.29-24.28Q549.39-23.4 549.44-22.54 549.49-21.68 549.49-20.95L549.49-20.95 549.49 0 542.04 0 542.04-36.43 548.49-36.43Q549.04-36.43 549.45-36.4 549.87-36.38 550.19-36.25 550.52-36.13 550.78-35.86 551.04-35.6 551.29-35.13L551.29-35.13 560.67-16.65ZM611.39-32.95L609.29-29.03Q608.91-28.43 608.5-28.13 608.09-27.83 607.44-27.83L607.44-27.83Q606.86-27.83 606.2-28.19 605.54-28.55 604.7-29 603.86-29.45 602.79-29.81 601.71-30.18 600.34-30.18L600.34-30.18Q597.96-30.18 596.8-29.16 595.64-28.15 595.64-26.43L595.64-26.43Q595.64-25.33 596.34-24.6 597.04-23.88 598.18-23.35 599.31-22.83 600.78-22.39 602.24-21.95 603.76-21.41 605.29-20.88 606.75-20.15 608.21-19.43 609.35-18.3 610.49-17.18 611.19-15.56 611.89-13.95 611.89-11.68L611.89-11.68Q611.89-9.15 611.01-6.95 610.14-4.75 608.48-3.11 606.81-1.48 604.38-0.54 601.94 0.4 598.84 0.4L598.84 0.4Q597.14 0.4 595.38 0.05 593.61-0.3 591.96-0.94 590.31-1.58 588.86-2.45 587.41-3.33 586.34-4.4L586.34-4.4 588.84-8.35Q589.11-8.8 589.61-9.08 590.11-9.35 590.69-9.35L590.69-9.35Q591.44-9.35 592.2-8.88 592.96-8.4 593.93-7.83 594.89-7.25 596.14-6.78 597.39-6.3 599.09-6.3L599.09-6.3Q601.39-6.3 602.66-7.31 603.94-8.33 603.94-10.53L603.94-10.53Q603.94-11.8 603.24-12.6 602.54-13.4 601.4-13.93 600.26-14.45 598.81-14.85 597.36-15.25 595.84-15.74 594.31-16.23 592.86-16.94 591.41-17.65 590.28-18.81 589.14-19.98 588.44-21.71 587.74-23.45 587.74-26L587.74-26Q587.74-28.05 588.56-30 589.39-31.95 590.99-33.48 592.59-35 594.91-35.91 597.24-36.83 600.24-36.83L600.24-36.83Q601.91-36.83 603.5-36.56 605.09-36.3 606.51-35.79 607.94-35.27 609.18-34.56 610.41-33.85 611.39-32.95L611.39-32.95Z" opacity="1" transform="matrix(1,0,0,1,0,0)" fill="#ffffff" class="slogan-text-1" data-fill-palette-color="secondary" id="text-1"></path></svg></g></svg></g></svg></g></svg></g><g transform="matrix(1,0,0,1,133.38634080370727,0)"><svg viewBox="0 0 128.74731839258544 128.74731839258544" height="128.74731839258544" width="128.74731839258544"><g><svg></svg></g><g id="icon-0"><svg viewBox="0 0 128.74731839258544 128.74731839258544" height="128.74731839258544" width="128.74731839258544"><g><path transform="scale(1.28747,1.28747)" d="M30 100c-16.569 0-30-13.431-30-30v-40c0-16.569 13.431-30 30-30h40c16.569 0 30 13.431 30 30v40c0 16.569-13.431 30-30 30z" fill="#ffffff" fill-rule="nonzero" stroke="none" stroke-width="1" stroke-linecap="butt" stroke-linejoin="miter" stroke-miterlimit="10" stroke-dasharray="" stroke-dashoffset="0" font-family="none" font-weight="none" font-size="none" text-anchor="none" style="mix-blend-mode: normal" data-fill-palette-color="accent"></path></g><g transform="matrix(1,0,0,1,25.74946367851709,26.061636287231984)"><svg viewBox="0 0 77.24839103555126 76.62404581812147" height="76.62404581812147" width="77.24839103555126"><g><svg xmlns="http://www.w3.org/2000/svg" data-name="Layer 1" viewBox="2.6199447741964934 2.9200000000000053 94.93731251264025 94.17" x="0" y="0" height="76.62404581812147" width="77.24839103555126" class="icon-cg-0" data-fill-palette-color="quaternary" id="cg-0"><path d="M10.72 12.06a9.14 9.14 0 1 1 9.14 9.14A9.14 9.14 0 0 1 10.72 12.06ZM20.52 78h-8a9.86 9.86 0 0 0-9.86 9.86v4.7a4.53 4.53 0 0 0 4.53 4.53H25.85a4.53 4.53 0 0 0 4.53-4.53v-4.7A9.86 9.86 0 0 0 20.52 78Zm4.33-11.11a8.35 8.35 0 1 0-8.35 8.35A8.35 8.35 0 0 0 24.85 66.89ZM87.53 78h-8a9.86 9.86 0 0 0-9.86 9.86v4.7a4.53 4.53 0 0 0 4.53 4.53H92.86a4.53 4.53 0 0 0 4.53-4.53v-4.7A9.86 9.86 0 0 0 87.53 78Zm4.33-11.11a8.35 8.35 0 1 0-8.35 8.35A8.35 8.35 0 0 0 91.86 66.89ZM54 78H46a9.86 9.86 0 0 0-9.86 9.86v4.7a4.53 4.53 0 0 0 4.53 4.53H59.35a4.53 4.53 0 0 0 4.53-4.53v-4.7A9.86 9.86 0 0 0 54 78Zm4.33-11.11A8.35 8.35 0 1 0 50 75.24 8.35 8.35 0 0 0 58.35 66.89Zm-7-33.23a4 4 0 0 0 0.6-5.54 3.91 3.91 0 0 0-5.61-0.48L36 36.68c-3.84-3.54-9.82-9.19-11.11-10.43l-0.19-0.19 0 0 0 0A8.13 8.13 0 0 0 19 23.81H10.78A8.16 8.16 0 0 0 2.62 32V48.35a4.53 4.53 0 0 0 4.53 4.53H22.66a4.53 4.53 0 0 0 4.53-4.53V39.18l6.06 5.64a3.92 3.92 0 0 0 5.23 0.07ZM94.59 3.31H39.4a2.8 2.8 0 1 0 0 5.59H94.59a2.8 2.8 0 0 0 0-5.59Zm0 11.13H39.4a2.8 2.8 0 1 0 0 5.59H94.59a2.8 2.8 0 0 0 0-5.59Zm0 11.13H61.69a2.8 2.8 0 1 0 0 5.59h32.9a2.8 2.8 0 0 0 0-5.59Zm0 11.13H58.35a2.8 2.8 0 1 0 0 5.59H94.59a2.8 2.8 0 0 0 0-5.59Zm0 11.13H45.68a2.8 2.8 0 1 0 0 5.59H94.59a2.8 2.8 0 1 0 0-5.59Z" fill="#111111" data-fill-palette-color="quaternary"></path></svg></g></svg></g></svg></g></svg></g><g></g></svg></g><defs></defs></svg><rect width="395.52" height="234.06165223701788" fill="none" stroke="none" visibility="hidden"></rect></g></svg></g></svg>