<svg xmlns="http://www.w3.org/2000/svg" version="1.1" xmlns:xlink="http://www.w3.org/1999/xlink" xmlns:svgjs="http://svgjs.dev/svgjs" width="2000" height="1500" viewBox="0 0 2000 1500"><rect width="2000" height="1500" fill="#ffffff"></rect><g transform="matrix(0.75,0,0,0.75,249.0919948167318,489.25486902159287)"><svg viewBox="0 0 396 138" data-background-color="#ffffff" preserveAspectRatio="xMidYMid meet" height="696" width="2000" xmlns="http://www.w3.org/2000/svg" xmlns:xlink="http://www.w3.org/1999/xlink"><g id="tight-bounds" transform="matrix(1,0,0,1,0.23971336838280877,-0.06737916662800103)"><svg viewBox="0 0 395.52 138.13475833325597" height="138.13475833325597" width="395.52"><g><svg viewBox="0 0 395.52 138.13475833325597" height="138.13475833325597" width="395.52"><g><svg viewBox="0 0 395.52 138.13475833325597" height="138.13475833325597" width="395.52"><g id="textblocktransform"><svg viewBox="0 0 395.52 138.13475833325597" height="138.13475833325597" width="395.52" id="textblock"><g><svg viewBox="0 0 395.52 93.816335225437" height="93.816335225437" width="395.52"><g transform="matrix(1,0,0,1,0,0)"><svg width="395.52" viewBox="0 -36.3 156.3997733155342 37.099999999999994" height="93.816335225437" data-palette-color="#0061b5"><g transform="matrix(1,0,0,1,0,0)"><g><svg width="15.704803315534194" viewBox="3.16 -36.86 101.7 37.37" height="5.771405548044602" data-palette-color="#0061b5" id="scriptelement" x="137.4424016577671" y="-13.9906727740223"><path d="M26.44 0L3.16 0 3.16-36.36 10.85-36.36 10.85-6.34 26.44-6.34 26.44 0ZM31.53 0L31.53-36.36 41.01-36.36 51.03-11.93 51.45-11.93 61.47-36.36 70.95-36.36 70.95 0 63.49 0 63.49-23.67 63.19-23.67 53.78-0.18 48.7-0.18 39.29-23.76 38.99-23.76 38.99 0 31.53 0ZM104.36-25.91L96.99-25.91Q96.78-28.05 95.17-29.24 93.55-30.43 90.78-30.43L90.78-30.43Q88.9-30.43 87.6-29.91 86.31-29.39 85.62-28.46 84.94-27.54 84.94-26.37L84.94-26.37Q84.9-25.39 85.36-24.66 85.81-23.93 86.61-23.41 87.41-22.89 88.45-22.51 89.5-22.12 90.69-21.86L90.69-21.86 93.96-21.08Q96.34-20.54 98.33-19.66 100.31-18.77 101.77-17.47 103.23-16.18 104.03-14.42 104.84-12.66 104.86-10.39L104.86-10.39Q104.84-7.05 103.16-4.61 101.49-2.17 98.33-0.83 95.18 0.51 90.74 0.51L90.74 0.51Q86.34 0.51 83.08-0.83 79.82-2.18 78-4.84 76.18-7.49 76.1-11.42L76.1-11.42 83.54-11.42Q83.66-9.59 84.59-8.37 85.52-7.16 87.1-6.54 88.67-5.93 90.66-5.93L90.66-5.93Q92.61-5.93 94.06-6.5 95.5-7.07 96.3-8.08 97.1-9.09 97.1-10.4L97.1-10.4Q97.1-11.63 96.38-12.46 95.66-13.3 94.29-13.88 92.91-14.47 90.92-14.95L90.92-14.95 86.96-15.94Q82.36-17.06 79.7-19.44 77.04-21.82 77.05-25.85L77.05-25.85Q77.04-29.15 78.82-31.62 80.61-34.09 83.73-35.48 86.86-36.86 90.83-36.86L90.83-36.86Q94.88-36.86 97.91-35.48 100.94-34.09 102.62-31.62 104.31-29.15 104.36-25.91L104.36-25.91Z" opacity="1" transform="matrix(1,0,0,1,0,0)" fill="#0061b5" class="undefined-123" data-fill-palette-color="primary" id="yy-123"></path></svg></g></g><path d="M134.19-11.105C134.19-17.238 139.162-22.21 145.295-22.21 151.428-22.21 156.4-17.238 156.4-11.105 156.4-4.972 151.428 0 145.295 0 139.162 0 134.19-4.972 134.19-11.105ZM145.295-0.4C151.207-0.4 156-5.193 156-11.105 156-17.017 151.207-21.81 145.295-21.81 139.383-21.81 134.59-17.017 134.59-11.105 134.59-5.193 139.383-0.4 145.295-0.4Z" fill="#0061b5" id="scriptcircle" data-fill-palette-color="primary"></path><path d="M13.85-4.15L24.1-34.1 27.75-34.1 15.85 0 11.85 0 0-34.1 3.75-34.1 13.85-4.15ZM47.75-23.4L51.15-23.4 51.15 0 47.75 0 47.75-3.45Q46.3-1.45 44.2-0.33 42.1 0.8 39.6 0.8L39.6 0.8Q36.25 0.8 33.6-0.8 30.95-2.4 29.45-5.25 27.95-8.1 27.95-11.75L27.95-11.75Q27.95-15.35 29.42-18.18 30.9-21 33.52-22.6 36.15-24.2 39.5-24.2L39.5-24.2Q42.05-24.2 44.17-23.08 46.3-21.95 47.75-19.9L47.75-19.9 47.75-23.4ZM39.5-2.3Q41.9-2.3 43.77-3.5 45.65-4.7 46.7-6.85 47.75-9 47.75-11.7L47.75-11.7Q47.75-14.4 46.7-16.55 45.65-18.7 43.77-19.9 41.9-21.1 39.5-21.1L39.5-21.1Q37.15-21.1 35.3-19.9 33.45-18.7 32.4-16.57 31.35-14.45 31.35-11.75L31.35-11.75Q31.35-9 32.4-6.85 33.45-4.7 35.3-3.5 37.15-2.3 39.5-2.3L39.5-2.3ZM68.59-24.2Q71.05-24.2 73.12-23.2 75.2-22.2 76.42-20.25 77.65-18.3 77.65-15.65L77.65-15.65 77.65 0 74.25 0 74.25-14.15Q74.25-21.1 68.05-21.1L68.05-21.1Q64.45-21.1 62.65-18.55 60.84-16 60.84-11.7L60.84-11.7 60.84 0 57.45 0 57.45-23.4 60.84-23.4 60.84-19.5Q62.05-21.75 64.02-22.98 66-24.2 68.59-24.2L68.59-24.2ZM89.54 0L86.14 0 86.14-23.4 89.54-23.4 89.54 0ZM87.84-27.95Q86.69-27.95 85.92-28.75 85.14-29.55 85.14-30.7L85.14-30.7Q85.14-31.8 85.92-32.58 86.69-33.35 87.84-33.35L87.84-33.35Q88.94-33.35 89.74-32.58 90.54-31.8 90.54-30.65L90.54-30.65Q90.54-29.55 89.74-28.75 88.94-27.95 87.84-27.95L87.84-27.95ZM101.34 0L97.94 0 97.94-36.3 101.34-36.3 101.34 0ZM126.19-23.4L129.59-23.4 129.59 0 126.19 0 126.19-3.45Q124.74-1.45 122.64-0.33 120.54 0.8 118.04 0.8L118.04 0.8Q114.69 0.8 112.04-0.8 109.39-2.4 107.89-5.25 106.39-8.1 106.39-11.75L106.39-11.75Q106.39-15.35 107.86-18.18 109.34-21 111.96-22.6 114.59-24.2 117.94-24.2L117.94-24.2Q120.49-24.2 122.61-23.08 124.74-21.95 126.19-19.9L126.19-19.9 126.19-23.4ZM117.94-2.3Q120.34-2.3 122.21-3.5 124.09-4.7 125.14-6.85 126.19-9 126.19-11.7L126.19-11.7Q126.19-14.4 125.14-16.55 124.09-18.7 122.21-19.9 120.34-21.1 117.94-21.1L117.94-21.1Q115.59-21.1 113.74-19.9 111.89-18.7 110.84-16.57 109.79-14.45 109.79-11.75L109.79-11.75Q109.79-9 110.84-6.85 111.89-4.7 113.74-3.5 115.59-2.3 117.94-2.3L117.94-2.3Z" opacity="1" transform="matrix(1,0,0,1,0,0)" fill="#0061b5" class="wordmark-text-0" data-fill-palette-color="primary" id="text-0"></path></svg></g></svg></g><g transform="matrix(1,0,0,1,0,115.96412038011727)"><svg viewBox="0 0 232.209792 22.170637953138705" height="22.170637953138705" width="232.209792"><g transform="matrix(1,0,0,1,0,0)"><svg width="232.209792" viewBox="2 -37.5 399.02 38.1" height="22.170637953138705" data-palette-color="#3400c3"><path d="M24.35-34.05Q30.65-34.05 34.2-31.08 37.75-28.1 37.75-22.5L37.75-22.5Q37.75-19.85 36.95-16.8L36.95-16.8Q35.45-11.2 32.3-7.3 29.15-3.4 24.8-1.4 20.45 0.6 15.35 0.6L15.35 0.6Q9.1 0.6 5.55-2.38 2-5.35 2-10.95L2-10.95Q2-13.5 2.85-16.8L2.85-16.8Q4.3-22.35 7.43-26.23 10.55-30.1 14.88-32.08 19.2-34.05 24.35-34.05L24.35-34.05ZM23.45-29.15Q21.95-29.15 20.75-27.95 19.55-26.75 18.38-24.03 17.2-21.3 15.85-16.45L15.85-16.45Q13.85-9.45 13.85-6.8L13.85-6.8Q13.85-5.25 14.4-4.55 14.95-3.85 16.15-3.85L16.15-3.85Q17.65-3.85 18.85-5.08 20.05-6.3 21.2-9 22.35-11.7 23.75-16.45L23.75-16.45Q25.7-23.35 25.7-26.15L25.7-26.15Q25.7-27.75 25.15-28.45 24.6-29.15 23.45-29.15L23.45-29.15ZM70.65-16.75L67.6-6.9Q67.5-6.7 67.5-6.3L67.5-6.3Q67.5-5.95 67.67-5.75 67.85-5.55 68.15-5.55L68.15-5.55Q68.75-5.55 69.17-6.08 69.6-6.6 69.75-6.6L69.75-6.6Q70-6.6 70.15-6.28 70.3-5.95 70.3-5.5L70.3-5.5Q70.35-4.05 69.35-2.68 68.35-1.3 66.42-0.43 64.5 0.45 61.8 0.45L61.8 0.45Q58.5 0.45 56.55-1.07 54.6-2.6 54.55-5.15L54.55-5.15Q54.55-7 55.45-9.3L55.45-9.3 58.2-16.5Q58.45-17.15 58.45-17.55L58.45-17.55Q58.45-18.2 58.02-18.57 57.6-18.95 57-18.95L57-18.95Q55.9-18.95 54.9-17.93 53.9-16.9 53.45-15.4L53.45-15.4 50.35-5.2Q50.15-4.65 50.15-4.15L50.15-4.15Q50.15-3.55 50.4-3.18 50.65-2.8 51.1-2.4L51.1-2.4Q51.45-2.1 51.6-1.85 51.75-1.6 51.65-1.25L51.65-1.25Q51.45-0.6 50.7-0.3 49.95 0 48.35 0L48.35 0 36.95 0Q35.65 0 35.07-0.43 34.5-0.85 34.65-1.55L34.65-1.55Q34.85-2.15 35.7-2.6L35.7-2.6Q36.45-3 36.95-3.55 37.45-4.1 37.8-5.3L37.8-5.3 42.25-19.75Q42.35-20 42.35-20.45L42.35-20.45Q42.35-21 42.12-21.3 41.9-21.6 41.4-22.05L41.4-22.05Q40.9-22.45 40.7-22.75 40.5-23.05 40.65-23.55L40.65-23.55Q40.95-24.7 43.8-25.58 46.65-26.45 49.75-26.45L49.75-26.45Q52.25-26.45 53.7-25.08 55.15-23.7 55-21.25L55-21.25Q57.05-24.2 59.35-25.33 61.65-26.45 64.35-26.45L64.35-26.45Q67.4-26.45 69.27-24.6 71.15-22.75 71.15-19.8L71.15-19.8Q71.15-18.25 70.65-16.75L70.65-16.75ZM88.4-36.95Q91.3-36.95 92.67-35.85 94.05-34.75 94.05-32.85L94.05-32.85Q94.05-31.75 93.7-30.7L93.7-30.7 85.85-5.2Q85.7-4.6 85.7-4.15L85.7-4.15Q85.7-3.5 85.95-3.13 86.2-2.75 86.65-2.4L86.65-2.4Q87-2.05 87.15-1.83 87.3-1.6 87.2-1.25L87.2-1.25Q86.95-0.6 86.2-0.3 85.45 0 83.9 0L83.9 0 72.5 0Q71.2 0 70.6-0.43 70-0.85 70.2-1.55L70.2-1.55Q70.4-2.15 71.25-2.6L71.25-2.6Q72-3 72.5-3.55 73-4.1 73.35-5.3L73.35-5.3 80.95-30.25Q81.1-30.7 81.1-31L81.1-31Q81.1-31.55 80.82-31.9 80.55-32.25 80.1-32.6L80.1-32.6Q79.6-33 79.37-33.3 79.15-33.6 79.3-34.1L79.3-34.1Q79.6-35.25 82.45-36.1 85.3-36.95 88.4-36.95L88.4-36.95ZM103.74-26.45Q106.64-26.45 107.99-25.35 109.34-24.25 109.34-22.35L109.34-22.35Q109.34-21.2 108.99-20.15L108.99-20.15 104.39-5.2Q104.24-4.6 104.24-4.15L104.24-4.15Q104.24-3.5 104.49-3.13 104.74-2.75 105.19-2.4L105.19-2.4Q105.54-2.05 105.69-1.83 105.84-1.6 105.74-1.25L105.74-1.25Q105.49-0.6 104.74-0.3 103.99 0 102.44 0L102.44 0 91.04 0Q89.74 0 89.14-0.43 88.54-0.85 88.74-1.55L88.74-1.55Q88.94-2.15 89.79-2.6L89.79-2.6Q90.54-3 91.04-3.55 91.54-4.1 91.89-5.3L91.89-5.3 96.24-19.75Q96.39-20.2 96.39-20.5L96.39-20.5Q96.39-21.05 96.14-21.38 95.89-21.7 95.39-22.05L95.39-22.05Q94.89-22.45 94.69-22.75 94.49-23.05 94.64-23.55L94.64-23.55Q94.94-24.7 97.79-25.58 100.64-26.45 103.74-26.45L103.74-26.45ZM107.09-37.5Q109.04-37.5 110.34-36.23 111.64-34.95 111.64-33.1L111.64-33.1Q111.64-31.8 110.97-30.55 110.29-29.3 109.07-28.53 107.84-27.75 106.34-27.75L106.34-27.75Q104.44-27.75 103.17-29.03 101.89-30.3 101.84-32.2L101.84-32.2Q101.84-33.45 102.49-34.68 103.14-35.9 104.34-36.7 105.54-37.5 107.09-37.5L107.09-37.5ZM143.04-16.75L139.99-6.9Q139.89-6.7 139.89-6.3L139.89-6.3Q139.89-5.95 140.06-5.75 140.24-5.55 140.54-5.55L140.54-5.55Q141.14-5.55 141.56-6.08 141.99-6.6 142.14-6.6L142.14-6.6Q142.39-6.6 142.54-6.28 142.69-5.95 142.69-5.5L142.69-5.5Q142.74-4.05 141.74-2.68 140.74-1.3 138.81-0.43 136.89 0.45 134.19 0.45L134.19 0.45Q130.89 0.45 128.94-1.07 126.99-2.6 126.94-5.15L126.94-5.15Q126.94-7 127.84-9.3L127.84-9.3 130.59-16.5Q130.84-17.15 130.84-17.55L130.84-17.55Q130.84-18.2 130.42-18.57 129.99-18.95 129.39-18.95L129.39-18.95Q128.29-18.95 127.29-17.93 126.29-16.9 125.84-15.4L125.84-15.4 122.74-5.2Q122.54-4.65 122.54-4.15L122.54-4.15Q122.54-3.55 122.79-3.18 123.04-2.8 123.49-2.4L123.49-2.4Q123.84-2.1 123.99-1.85 124.14-1.6 124.04-1.25L124.04-1.25Q123.84-0.6 123.09-0.3 122.34 0 120.74 0L120.74 0 109.34 0Q108.04 0 107.47-0.43 106.89-0.85 107.04-1.55L107.04-1.55Q107.24-2.15 108.09-2.6L108.09-2.6Q108.84-3 109.34-3.55 109.84-4.1 110.19-5.3L110.19-5.3 114.64-19.75Q114.74-20 114.74-20.45L114.74-20.45Q114.74-21 114.52-21.3 114.29-21.6 113.79-22.05L113.79-22.05Q113.29-22.45 113.09-22.75 112.89-23.05 113.04-23.55L113.04-23.55Q113.34-24.7 116.19-25.58 119.04-26.45 122.14-26.45L122.14-26.45Q124.64-26.45 126.09-25.08 127.54-23.7 127.39-21.25L127.39-21.25Q129.44-24.2 131.74-25.33 134.04-26.45 136.74-26.45L136.74-26.45Q139.79-26.45 141.67-24.6 143.54-22.75 143.54-19.8L143.54-19.8Q143.54-18.25 143.04-16.75L143.04-16.75ZM161.79-26.7Q168.14-26.7 170.99-24.68 173.84-22.65 173.84-19.5L173.84-19.5Q173.84-18.55 173.64-17.75L173.64-17.75Q172.89-14.45 169.46-13.03 166.04-11.6 161.39-11.6L161.39-11.6Q159.04-11.6 156.99-11.9L156.99-11.9Q156.94-9.3 158.39-8.25 159.84-7.2 162.44-7.2L162.44-7.2Q163.64-7.2 164.74-7.48 165.84-7.75 167.54-8.3L167.54-8.3Q168.94-8.8 169.44-8.8L169.44-8.8Q169.99-8.8 169.99-8.15L169.99-8.15Q170.04-6.4 168.69-4.48 167.34-2.55 164.69-1.2 162.04 0.15 158.29 0.15L158.29 0.15Q152.74 0.15 149.19-2.65 145.64-5.45 145.64-10.8L145.64-10.8Q145.64-12.3 146.04-14.3L146.04-14.3Q147.29-20.45 151.51-23.58 155.74-26.7 161.79-26.7L161.79-26.7ZM157.34-14.9Q157.54-14.85 157.89-14.85L157.89-14.85Q159.99-14.85 161.09-16.8 162.19-18.75 162.14-21.15L162.14-21.15Q162.09-22.55 161.34-22.55L161.34-22.55Q160.79-22.55 160.04-21.68 159.29-20.8 158.56-19.05 157.84-17.3 157.34-14.9L157.34-14.9ZM200.23 0.3Q196.03 0.3 192.68-1.25 189.33-2.8 187.36-5.83 185.38-8.85 185.38-13.15L185.38-13.15Q185.38-16.15 186.43-19.65L186.43-19.65Q188.73-27.15 193.38-30.48 198.03-33.8 203.33-33.8L203.33-33.8Q206.18-33.8 208.38-32.95 210.58-32.1 212.43-30.5L212.43-30.5 213.78-31.55Q215.13-32.6 216.06-33 216.98-33.4 218.13-33.4L218.13-33.4Q219.38-33.4 220.13-32.85 220.88-32.3 220.88-31.25L220.88-31.25Q220.88-30.7 220.68-30.15L220.68-30.15 217.88-22.35Q217.43-21 216.81-20.45 216.18-19.9 214.93-19.9L214.93-19.9Q213.63-19.9 212.81-20.83 211.98-21.75 210.93-24L210.93-24Q209.73-26.35 208.98-27.1 208.23-27.85 206.78-27.85L206.78-27.85Q204.73-27.85 202.83-25.33 200.93-22.8 199.38-17.75L199.38-17.75Q198.08-13.5 198.08-10.65L198.08-10.65Q198.08-8.15 199.03-6.93 199.98-5.7 201.58-5.7L201.58-5.7Q203.93-5.7 205.46-6.75 206.98-7.8 208.58-9.6L208.58-9.6Q209.58-10.7 210.21-11.23 210.83-11.75 211.53-11.75L211.53-11.75Q212.43-11.75 213.43-10.85 214.43-9.95 214.38-9.05L214.38-9.05Q214.43-7.95 212.61-5.65 210.78-3.35 207.56-1.53 204.33 0.3 200.23 0.3L200.23 0.3ZM236.78-26.45Q243.58-26.45 246.81-23.7 250.03-20.95 250.03-16.5L250.03-16.5Q250.03-15 249.63-13.15L249.63-13.15Q248.68-9.05 246.08-5.98 243.48-2.9 239.71-1.23 235.93 0.45 231.53 0.45L231.53 0.45Q224.58 0.45 221.25-2.33 217.93-5.1 217.93-9.7L217.93-9.7Q217.93-11.25 218.33-13.15L218.33-13.15Q219.28-17.05 221.96-20.08 224.63-23.1 228.5-24.78 232.38-26.45 236.78-26.45L236.78-26.45ZM236.63-22Q235.58-22 234.41-20.13 233.23-18.25 231.63-13.05L231.63-13.05Q230.03-7.85 230.03-5.75L230.03-5.75Q230.03-4.65 230.38-4.28 230.73-3.9 231.33-3.9L231.33-3.9Q232.38-3.8 233.5-5.7 234.63-7.6 236.33-13.1L236.33-13.1Q237.88-17.95 237.88-20.15L237.88-20.15Q237.88-21.2 237.56-21.6 237.23-22 236.63-22L236.63-22ZM283.98-20.15L279.93-6.9Q279.83-6.5 279.83-6.3L279.83-6.3Q279.83-5.95 280-5.75 280.18-5.55 280.48-5.55L280.48-5.55Q281.08-5.55 281.5-6.08 281.93-6.6 282.08-6.6L282.08-6.6Q282.33-6.6 282.5-6.28 282.68-5.95 282.68-5.5L282.68-5.5Q282.73-4.1 281.68-2.73 280.63-1.35 278.73-0.45 276.83 0.45 274.48 0.45L274.48 0.45Q271.53 0.45 269.78-0.75 268.03-1.95 267.53-3.9L267.53-3.9Q265.73-1.9 263.55-0.88 261.38 0.15 259.13 0.15L259.13 0.15Q255.63 0.15 253.25-1.58 250.88-3.3 250.88-6.4L250.88-6.4Q250.88-7.8 251.38-9.3L251.38-9.3 254.58-19.75Q254.73-20.2 254.73-20.5L254.73-20.5Q254.73-21.05 254.48-21.38 254.23-21.7 253.73-22.05L253.73-22.05Q253.23-22.45 253.03-22.75 252.83-23.05 252.98-23.55L252.98-23.55Q253.28-24.7 256.13-25.58 258.98-26.45 262.08-26.45L262.08-26.45Q264.98-26.45 266.33-25.35 267.68-24.25 267.68-22.35L267.68-22.35Q267.68-21.2 267.33-20.15L267.33-20.15 264.18-9.75Q263.98-9.2 263.98-8.7L263.98-8.7Q263.98-8 264.38-7.65 264.78-7.3 265.43-7.3L265.43-7.3Q266.38-7.3 266.98-7.85 267.58-8.4 268.18-9.7L268.18-9.7 271.23-19.75Q271.38-20.2 271.38-20.5L271.38-20.5Q271.38-21.05 271.13-21.38 270.88-21.7 270.43-22.05L270.43-22.05Q269.93-22.45 269.73-22.75 269.53-23.05 269.68-23.55L269.68-23.55Q269.93-24.7 272.78-25.58 275.63-26.45 278.73-26.45L278.73-26.45Q281.63-26.45 283-25.35 284.38-24.25 284.38-22.4L284.38-22.4Q284.38-21.45 283.98-20.15L283.98-20.15ZM309.08-26.45Q311.88-26.45 313.55-24.75 315.23-23.05 315.23-20.55L315.23-20.55Q315.23-19.6 315.03-18.8L315.03-18.8Q314.53-16.75 313.13-15.65 311.73-14.55 309.78-14.55L309.78-14.55Q307.88-14.55 306.9-15.45 305.93-16.35 305.18-17.85L305.18-17.85Q304.78-18.7 304.43-19.1 304.08-19.5 303.63-19.5L303.63-19.5Q303.13-19.5 302.75-19.1 302.38-18.7 302.08-17.7L302.08-17.7 298.23-5.2Q298.13-4.95 298.13-4.45L298.13-4.45Q298.13-3.8 298.5-3.38 298.88-2.95 299.53-2.55L299.53-2.55Q300.13-2.15 300.33-1.9 300.53-1.65 300.48-1.25L300.48-1.25Q300.38-0.6 299.75-0.3 299.13 0 297.63 0L297.63 0 284.83 0Q283.53 0 282.95-0.43 282.38-0.85 282.53-1.55L282.53-1.55Q282.73-2.15 283.58-2.6L283.58-2.6Q284.33-3 284.83-3.55 285.33-4.1 285.68-5.3L285.68-5.3 290.13-19.75Q290.23-20 290.23-20.45L290.23-20.45Q290.23-21 290-21.3 289.78-21.6 289.28-22.05L289.28-22.05Q288.78-22.45 288.58-22.75 288.38-23.05 288.53-23.55L288.53-23.55Q288.83-24.7 291.68-25.58 294.53-26.45 297.63-26.45L297.63-26.45Q299.68-26.45 301.03-25.53 302.38-24.6 302.78-22.9L302.78-22.9Q305.18-26.45 309.08-26.45L309.08-26.45ZM329.92-26.9Q334.07-26.9 337.1-26.15 340.12-25.4 341.75-24.05 343.37-22.7 343.37-21L343.37-21Q343.37-19.25 342-18.15 340.62-17.05 338.17-17.05L338.17-17.05Q335.67-17.05 333.95-18.3 332.22-19.55 332.22-21.45L332.22-21.45Q332.22-22.1 332.42-22.7L332.42-22.7Q331.52-22.95 330.82-22.95L330.82-22.95Q329.57-22.95 328.75-22.35 327.92-21.75 327.97-20.65L327.97-20.65Q327.97-19.35 329.27-18.45 330.57-17.55 333.47-16.2L333.47-16.2Q335.97-15.1 337.6-14.18 339.22-13.25 340.35-11.85 341.47-10.45 341.47-8.55L341.47-8.55Q341.47-8.15 341.27-7.05L341.27-7.05Q340.47-3.7 336.82-1.75 333.17 0.2 327.22 0.2L327.22 0.2Q320.52 0.2 316.6-1.6 312.67-3.4 312.67-6.55L312.67-6.55Q312.67-8.7 313.97-9.8 315.27-10.9 317.42-10.9L317.42-10.9Q319.92-10.9 321.7-9.35 323.47-7.8 323.47-5.4L323.47-5.4Q323.47-4.75 323.32-4.05L323.32-4.05Q324.52-3.75 325.62-3.75L325.62-3.75Q326.92-3.75 327.77-4.45 328.62-5.15 328.62-6.4L328.62-6.4Q328.57-7.55 327.47-8.38 326.37-9.2 323.97-10.35L323.97-10.35Q321.72-11.4 320.27-12.33 318.82-13.25 317.8-14.65 316.77-16.05 316.77-17.95L316.77-17.95Q316.77-22.05 320.2-24.48 323.62-26.9 329.92-26.9L329.92-26.9ZM360.07-26.7Q366.42-26.7 369.27-24.68 372.12-22.65 372.12-19.5L372.12-19.5Q372.12-18.55 371.92-17.75L371.92-17.75Q371.17-14.45 367.75-13.03 364.32-11.6 359.67-11.6L359.67-11.6Q357.32-11.6 355.27-11.9L355.27-11.9Q355.22-9.3 356.67-8.25 358.12-7.2 360.72-7.2L360.72-7.2Q361.92-7.2 363.02-7.48 364.12-7.75 365.82-8.3L365.82-8.3Q367.22-8.8 367.72-8.8L367.72-8.8Q368.27-8.8 368.27-8.15L368.27-8.15Q368.32-6.4 366.97-4.48 365.62-2.55 362.97-1.2 360.32 0.15 356.57 0.15L356.57 0.15Q351.02 0.15 347.47-2.65 343.92-5.45 343.92-10.8L343.92-10.8Q343.92-12.3 344.32-14.3L344.32-14.3Q345.57-20.45 349.8-23.58 354.02-26.7 360.07-26.7L360.07-26.7ZM355.62-14.9Q355.82-14.85 356.17-14.85L356.17-14.85Q358.27-14.85 359.37-16.8 360.47-18.75 360.42-21.15L360.42-21.15Q360.37-22.55 359.62-22.55L359.62-22.55Q359.07-22.55 358.32-21.68 357.57-20.8 356.85-19.05 356.12-17.3 355.62-14.9L355.62-14.9ZM387.57-26.9Q391.72-26.9 394.74-26.15 397.77-25.4 399.39-24.05 401.02-22.7 401.02-21L401.02-21Q401.02-19.25 399.64-18.15 398.27-17.05 395.82-17.05L395.82-17.05Q393.32-17.05 391.59-18.3 389.87-19.55 389.87-21.45L389.87-21.45Q389.87-22.1 390.07-22.7L390.07-22.7Q389.17-22.95 388.47-22.95L388.47-22.95Q387.22-22.95 386.39-22.35 385.57-21.75 385.62-20.65L385.62-20.65Q385.62-19.35 386.92-18.45 388.22-17.55 391.12-16.2L391.12-16.2Q393.62-15.1 395.24-14.18 396.87-13.25 397.99-11.85 399.12-10.45 399.12-8.55L399.12-8.55Q399.12-8.15 398.92-7.05L398.92-7.05Q398.12-3.7 394.47-1.75 390.82 0.2 384.87 0.2L384.87 0.2Q378.17 0.2 374.24-1.6 370.32-3.4 370.32-6.55L370.32-6.55Q370.32-8.7 371.62-9.8 372.92-10.9 375.07-10.9L375.07-10.9Q377.57-10.9 379.34-9.35 381.12-7.8 381.12-5.4L381.12-5.4Q381.12-4.75 380.97-4.05L380.97-4.05Q382.17-3.75 383.27-3.75L383.27-3.75Q384.57-3.75 385.42-4.45 386.27-5.15 386.27-6.4L386.27-6.4Q386.22-7.55 385.12-8.38 384.02-9.2 381.62-10.35L381.62-10.35Q379.37-11.4 377.92-12.33 376.47-13.25 375.44-14.65 374.42-16.05 374.42-17.95L374.42-17.95Q374.42-22.05 377.84-24.48 381.27-26.9 387.57-26.9L387.57-26.9Z" opacity="1" transform="matrix(1,0,0,1,0,0)" fill="#3400c3" class="slogan-text-1" data-fill-palette-color="secondary" id="text-1"></path></svg></g></svg></g></svg></g></svg></g></svg></g><defs></defs></svg><rect width="395.52" height="138.13475833325597" fill="none" stroke="none" visibility="hidden"></rect></g></svg></g></svg>