<svg xmlns="http://www.w3.org/2000/svg" version="1.1" xmlns:xlink="http://www.w3.org/1999/xlink" xmlns:svgjs="http://svgjs.dev/svgjs" width="2000" height="661" viewBox="0 0 2000 661"><g transform="matrix(1,0,0,1,-1.2121212121212466,0.7382911755991017)"><svg viewBox="0 0 396 131" data-background-color="#ffffff" preserveAspectRatio="xMidYMid meet" height="661" width="2000" xmlns="http://www.w3.org/2000/svg" xmlns:xlink="http://www.w3.org/1999/xlink"><g id="tight-bounds" transform="matrix(1,0,0,1,0.2400000000000091,-0.1463179183108707)"><svg viewBox="0 0 395.52 131.29219106737418" height="131.29219106737418" width="395.52"><g><svg viewBox="0 0 395.52 131.29219106737418" height="131.29219106737418" width="395.52"><g><svg viewBox="0 0 395.52 131.29219106737418" height="131.29219106737418" width="395.52"><g id="textblocktransform"><svg viewBox="0 0 395.52 131.29219106737418" height="131.29219106737418" width="395.52" id="textblock"><g><svg viewBox="0 0 395.52 59.20695406223117" height="59.20695406223117" width="395.52"><g transform="matrix(1,0,0,1,0,0)"><svg width="395.52" viewBox="2.75 -33.65 229.12416080374496 34.3" height="59.20695406223117" data-palette-color="#5e6601"><g transform="matrix(1,0,0,1,0,0)"><g><svg width="12.233660803744966" viewBox="3.16 -36.86 101.7 37.37" height="4.49578491478407" data-palette-color="#5e6601" id="scriptelement" x="217.1068304018725" y="-27.247392457392035"><path d="M26.44 0L3.16 0 3.16-36.36 10.85-36.36 10.85-6.34 26.44-6.34 26.44 0ZM31.53 0L31.53-36.36 41.01-36.36 51.03-11.93 51.45-11.93 61.47-36.36 70.95-36.36 70.95 0 63.49 0 63.49-23.67 63.19-23.67 53.78-0.18 48.7-0.18 39.29-23.76 38.99-23.76 38.99 0 31.53 0ZM104.36-25.91L96.99-25.91Q96.78-28.05 95.17-29.24 93.55-30.43 90.78-30.43L90.78-30.43Q88.9-30.43 87.6-29.91 86.31-29.39 85.62-28.46 84.94-27.54 84.94-26.37L84.94-26.37Q84.9-25.39 85.36-24.66 85.81-23.93 86.61-23.41 87.41-22.89 88.45-22.51 89.5-22.12 90.69-21.86L90.69-21.86 93.96-21.08Q96.34-20.54 98.33-19.66 100.31-18.77 101.77-17.47 103.23-16.18 104.03-14.42 104.84-12.66 104.86-10.39L104.86-10.39Q104.84-7.05 103.16-4.61 101.49-2.17 98.33-0.83 95.18 0.51 90.74 0.51L90.74 0.51Q86.34 0.51 83.08-0.83 79.82-2.18 78-4.84 76.18-7.49 76.1-11.42L76.1-11.42 83.54-11.42Q83.66-9.59 84.59-8.37 85.52-7.16 87.1-6.54 88.67-5.93 90.66-5.93L90.66-5.93Q92.61-5.93 94.06-6.5 95.5-7.07 96.3-8.08 97.1-9.09 97.1-10.4L97.1-10.4Q97.1-11.63 96.38-12.46 95.66-13.3 94.29-13.88 92.91-14.47 90.92-14.95L90.92-14.95 86.96-15.94Q82.36-17.06 79.7-19.44 77.04-21.82 77.05-25.85L77.05-25.85Q77.04-29.15 78.82-31.62 80.61-34.09 83.73-35.48 86.86-36.86 90.83-36.86L90.83-36.86Q94.88-36.86 97.91-35.48 100.94-34.09 102.62-31.62 104.31-29.15 104.36-25.91L104.36-25.91Z" opacity="1" transform="matrix(1,0,0,1,0,0)" fill="#5e6601" class="undefined-123" data-fill-palette-color="primary" id="yy-123"></path></svg></g></g><path d="M214.573-24.999C214.573-29.777 218.446-33.65 223.224-33.65 228.001-33.65 231.874-29.777 231.874-24.999 231.874-20.222 228.001-16.349 223.224-16.349 218.446-16.349 214.573-20.222 214.573-24.999ZM223.224-16.749C227.78-16.749 231.474-20.443 231.474-24.999 231.474-29.556 227.78-33.25 223.224-33.25 218.667-33.25 214.973-29.556 214.973-24.999 214.973-20.443 218.667-16.749 223.224-16.749Z" fill="#5e6601" id="scriptcircle" data-fill-palette-color="primary"></path><path d="M13.25 0Q12.65 0 11.9-0.15L11.9-0.15Q11.15-0.3 10.55-0.3L10.55-0.3Q10.4-0.3 10.4-0.25L10.4-0.25 10.15-0.25Q9.65-0.55 9.65-0.8L9.65-0.8 6.15-16.65Q4.7-21.85 3.2-29L3.2-29Q3.15-29.15 3.13-29.5 3.1-29.85 3-30.15L3-30.15Q2.75-31.15 2.75-31.95L2.75-31.95Q2.75-32.55 2.9-33L2.9-33Q3-33.65 3.65-33.65L3.65-33.65 4.25-33.65 5.4-33.65Q5.8-33.55 6.7-33.55L6.7-33.55 8.95-33.5 9.4-33.5 14-33.5Q14.05-33.45 14.2-33.4 14.35-33.35 14.5-33.3L14.5-33.3Q14.6-33.3 14.68-33.35 14.75-33.4 14.8-33.4L14.8-33.4Q15-33.5 15.2-33.5L15.2-33.5 15.4-33.5 15.9-33.45Q16.55-33.4 18.65-33.4L18.65-33.4Q19.2-33.3 20.15-33.3L20.15-33.3Q20.45-32.7 21.15-29.65L21.15-29.65 21.7-26.8Q21.9-25.75 22.4-23.65L22.4-23.65Q22.4-23.6 22.43-23.4 22.45-23.2 22.5-22.9L22.5-22.9Q22.6-22.5 22.68-22.03 22.75-21.55 22.9-21L22.9-21Q22.95-20.65 23.3-18.65L23.3-18.65 24.15-14.5 24.3-13.75 24.3-13.55Q24.4-13.5 24.4-13.3L24.4-13.3 24.45-13 24.5-13.3Q24.5-13.6 24.65-13.75L24.65-13.75Q24.65-13.8 24.68-13.98 24.7-14.15 24.75-14.5L24.75-14.5Q25.15-16.5 25.55-18.65L25.55-18.65 26.05-21Q26.15-21.6 26.25-22.05 26.35-22.5 26.4-22.9L26.4-22.9 26.55-23.65Q26.8-24.7 27.2-26.8L27.2-26.8 27.75-29.4Q27.85-29.95 28.25-31.9L28.25-31.9Q28.5-32.7 28.8-33.3L28.8-33.3Q29.5-33.3 29.9-33.35L29.9-33.35 31.15-33.4 32.15-33.45 32.55-33.5 32.7-33.5Q32.8-33.5 32.8-33.4L32.8-33.4Q32.85-33.4 32.88-33.35 32.9-33.3 32.9-33.3L32.9-33.3Q33.1-33.3 33.23-33.35 33.35-33.4 33.4-33.4L33.4-33.4 33.4-33.5 36.55-33.5 36.95-33.5Q37.55-33.5 37.95-33.55L37.95-33.55 39.2-33.55Q40.15-33.55 40.5-33.65L40.5-33.65 41.65-33.65 42.3-33.65Q43.2-33.65 43.2-32.25L43.2-32.25 43.15-31.65Q43.15-31.15 42.95-30.15L42.95-30.15Q42.8-29.65 42.78-29.38 42.75-29.1 42.7-29L42.7-29Q41.4-22.4 39.8-16.65L39.8-16.65 36.3-0.8Q36.3-0.65 35.8-0.25L35.8-0.25 35.65-0.25 35.4-0.3Q35.05-0.3 34.75-0.15L34.75-0.15Q34.45 0 34.15 0L34.15 0Q33.5 0 32.8-0.15L32.8-0.15Q32-0.25 31.45-0.25L31.45-0.25Q25.25 0 13.25 0L13.25 0ZM49.3 0.05Q48.35 0.05 48.55-1.65L48.55-1.65Q48.55-2.25 48.8-3L48.8-3Q48.8-3.35 48.85-3.58 48.9-3.8 48.9-3.95L48.9-3.95Q50.05-9.4 51.45-14.7L51.45-14.7 54.85-28Q54.85-28.1 55-28.25 55.15-28.4 55.3-28.5L55.3-28.5 55.65-28.5Q56.25-28.5 56.6-28.65L56.6-28.65Q56.9-28.7 57.65-28.7L57.65-28.7Q58.85-28.7 59.45-28.65L59.45-28.65Q60.35-28.5 61.3-28.5L61.3-28.5 63.9-28.55Q64.3-28.65 64.85-28.65L64.85-28.65 67.05-28.75 68.7-28.75Q69.65-28.75 70.55-28.7L70.55-28.7 71.95-28.7Q72.45-28.65 73.4-28.65L73.4-28.65 75.3-28.65Q75.45-28.65 75.6-28.6 75.75-28.55 75.85-28.5L75.85-28.5Q76.05-28.4 76.35-28.4L76.35-28.4 76.8-28.4Q77.15-28.15 77.15-27.9L77.15-27.9 80.7-14.7Q82.35-8.35 83.3-3.95L83.3-3.95Q83.3-3.7 83.45-3L83.45-3Q83.65-2 83.65-1.4L83.65-1.4Q83.65-1.05 83.55-0.45L83.55-0.45Q83.3 0.05 82.85 0.05L82.85 0.05 82.3 0.05Q81.65 0.05 81.3 0L81.3 0 80.2 0 79.15 0 78.3 0Q77.95 0 77.9-0.05L77.9-0.05 75.15-0.05 75.1-0.15Q75-0.25 74.8-0.25L74.8-0.25 74.65-0.15Q74.65-0.05 74.55-0.05L74.55-0.05 74.4-0.05 74.05-0.05Q73.8-0.15 73.15-0.15L73.15-0.15Q71.95-0.25 71.15-0.25L71.15-0.25Q70.6-1.4 69.85-5.3L69.85-5.3Q68.8-5.15 67.45-5.15L67.45-5.15 66.15-5.15 64.9-5.15Q64.7-4.4 64.65-3.9L64.65-3.9Q64.6-3.65 64.25-2.2 63.9-0.75 63.6-0.25L63.6-0.25 63.3-0.15Q63.15-0.1 63.05-0.08 62.95-0.05 62.95-0.05L62.95-0.05 62.85-0.05Q62.55-0.05 62.45-0.15L62.45-0.15Q62.25-0.25 62.2-0.25L62.2-0.25 60.3-0.15 58.9-0.15Q58.65-0.1 58.5-0.08 58.35-0.05 58.3-0.05L58.3-0.05 54.3-0.05 53.9-0.05Q53.45 0 52.05 0L52.05 0 50.85 0Q50.55 0.05 49.9 0.05L49.9 0.05 49.3 0.05ZM69.4-10.65Q69.1-12.35 69.05-12.65L69.05-12.65 68.65-15.05Q68.55-15.75 68.45-16.32 68.35-16.9 68.3-17.4L68.3-17.4Q68.15-18 68.07-18.53 68-19.05 67.9-19.5L67.9-19.5Q67.85-19.8 67.8-20.28 67.75-20.75 67.65-20.95L67.65-20.95 67.55-21.55Q67.55-21.75 67.45-21.9L67.45-21.9 67.4-22.2Q67.3-21.9 67.3-21.9L67.3-21.9 67.3-21.7 67.3-21.55Q67.3-21.5 67.25-21.38 67.2-21.25 67.15-20.95L67.15-20.95Q67.1-20.7 67.05-20.33 67-19.95 66.9-19.5L66.9-19.5 66.55-17.45 66.15-15.15 66-14.05Q65.9-13.65 65.8-12.75L65.8-12.75Q65.35-10.5 65.4-10.7L65.4-10.7 67.6-10.7Q67.65-10.75 67.75-10.83 67.85-10.9 67.9-10.9L67.9-10.9 68.05-10.9Q68.3-10.9 68.47-10.85 68.65-10.8 68.8-10.75L68.8-10.75Q69.1-10.65 69.4-10.65L69.4-10.65ZM94.45 0.15L93.75 0.15 92.95 0.15 92.2 0.15 91.8 0.15 89.85-0.4 89.75-0.7Q89.7-0.7 89.7-1.2L89.7-1.2Q89.7-1.85 89.65-2.25L89.65-2.25 89.6-4.15Q89.55-4.75 89.55-6.05L89.55-6.05Q89.55-7.3 89.5-7.9L89.5-7.9 89.5-9.4Q89.2-12.55 89.2-15.9L89.2-15.9 89.2-16.3 89.2-17.05Q89.2-17.65 89.25-17.9L89.25-17.9 89.25-18.3 89.25-18.65Q89.2-18.8 89.2-19.15L89.2-19.15 89.2-19.7 89.2-20 89.2-20.5 89.2-21.3Q89.2-21.9 89.25-22.15L89.25-22.15 89.25-22.65 89.3-22.9 89.3-23.55Q89.35-24.05 89.35-24.9L89.35-24.9Q89.35-25.55 89.3-26.05L89.3-26.05 89.25-27.2 89.2-27.4Q89.05-27.5 89.2-27.55L89.2-27.55Q89.4-28.35 90.45-28.7L90.45-28.7Q90.95-28.9 92.1-28.9L92.1-28.9Q92.95-28.9 96.55-29.05L96.55-29.05Q98.35-29.15 98.8-29.15L98.8-29.15Q99.55-29.2 100.6-29.2L100.6-29.2Q101.1-29.15 101.3-29.03 101.5-28.9 101.67-28.6 101.85-28.3 101.95-28.15L101.95-28.15 102.95-26.7Q102.9-26.75 104.2-24.9L104.2-24.9Q105.4-22.95 107.1-20.5L107.1-20.5Q107.35-20.1 107.7-19.6 108.05-19.1 108.45-18.45L108.45-18.45 108.45-20.2Q108.5-20.9 108.5-22.2L108.5-22.2Q108.5-23.9 108.6-26L108.6-26Q108.6-26.4 108.65-26.73 108.7-27.05 108.7-27.25L108.7-27.25Q108.7-27.75 108.75-27.75L108.75-27.75Q108.95-28.05 109.45-28.4L109.45-28.4Q110.05-28.8 110.7-28.75L110.7-28.75 113.2-28.75 113.7-28.75Q114.45-28.75 114.95-28.7L114.95-28.7 116.45-28.7Q116.95-28.65 117.95-28.65L117.95-28.65 119.05-28.65 119.55-28.65Q120.55-28.65 121.05-28.3L121.05-28.3Q121.35-28.1 121.45-27.78 121.55-27.45 121.55-26.8L121.55-26.8Q121.55-26.15 121.5-25.7L121.5-25.7Q121.45-25.2 121.45-24.5L121.45-24.5 121.45-24.15Q121.5-24 121.5-23.7L121.5-23.7 121.5-22.4 121.45-16.65 121.45-11 121.45-9.65Q121.45-4.25 121.35-2.8L121.35-2.8 121.2-1.15Q120.95 0 120.5 0.05L120.5 0.05Q120.4 0.05 120.22 0.1 120.05 0.15 119.85 0.15L119.85 0.15Q118.05 0.15 117.2 0.05L117.2 0.05 114.6 0.05 112 0.05 111.35 0.05Q111.2 0.1 110.95 0.1L110.95 0.1Q110.35 0.1 109.7-0.15L109.7-0.15Q109.3-0.25 108.85-0.7L108.85-0.7 104.45-6.9Q104.2-7.25 103.5-8.05L103.5-8.05 102.85-8.65Q102.6-8.9 102.45-8.9L102.45-8.9Q102.3-8.9 102.2-8.78 102.1-8.65 102.1-8.55L102.1-8.55 102.1-7.7Q102.05-7.3 102.05-6.45L102.05-6.45 102.05-5Q102-4.45 102-3.5L102-3.5 102-2.3 102-1.55Q101.95-1.45 101.95-1.25L101.95-1.25Q101.95-1.2 101.8-0.45L101.8-0.45Q101.7-0.25 101.65-0.2 101.6-0.15 101.3-0.15L101.3-0.15Q101.2-0.2 101.12-0.2 101.05-0.2 101-0.2L101-0.2Q97.05 0.15 94.45 0.15L94.45 0.15ZM129.24 0.65Q128.34 0.65 128.09-1.15L128.09-1.15Q127.94-1.9 127.94-2.5L127.94-2.5Q127.94-3.3 127.89-3.5L127.89-3.5Q127.84-4.95 127.64-8.1L127.64-8.1 127.49-10Q127.19-14.4 127.19-16.5L127.19-16.5 127.19-28.65Q127.19-29.05 128.09-29.25L128.09-29.25Q128.59-29.4 129.49-29.4L129.49-29.4Q130.09-29.4 130.79-29.33 131.49-29.25 131.84-29.25L131.84-29.25Q132.59-29.15 134.19-29.15L134.19-29.15 134.39-29.3 136.59-29.3Q136.74-29.15 136.94-29.15L136.94-29.15 137.14-29.15Q137.19-29.2 137.39-29.2L137.39-29.2Q137.49-29.25 137.69-29.25L137.69-29.25Q137.74-29.3 137.79-29.3 137.84-29.3 137.84-29.3L137.84-29.3Q137.99-29.3 138.19-29.23 138.39-29.15 138.49-29.15L138.49-29.15 142.19-29.15 142.34-20.55Q142.34-20.5 142.27-20.23 142.19-19.95 142.14-19.5L142.14-19.5Q141.99-17.7 141.99-16.65L141.99-16.65 141.99-6.9 141.84-5Q141.69-3.75 141.74-2.95L141.74-2.95Q141.74-1.9 141.67-1.28 141.59-0.65 141.34-0.3L141.34-0.3Q141.04 0.05 140.39 0.05L140.39 0.05 140.34 0 140.19-0.05Q140.09-0.05 140.09 0L140.09 0 139.84 0Q139.54 0.1 139.49 0.15L139.49 0.15Q139.24 0.15 138.34 0L138.34 0 137.64-0.05Q137.39-0.05 137.34 0.15L137.34 0.15 133.59 0.15 132.89 0.15 131.59 0.4 130.39 0.55 129.24 0.65ZM162.39 0.3L161.69 0.25 161.04 0.15 160.24 0.15Q159.49 0.05 157.64-0.05L157.64-0.05Q157.24-0.05 156.89-0.1 156.54-0.15 156.24-0.15L156.24-0.15 155.14-0.15 154.64-0.2Q153.04-0.2 152.29-0.15L152.29-0.15Q151.54-0.05 149.94-0.05L149.94-0.05 148.94-0.05 148.04 0 147.89-0.2 147.89-0.75 147.89-2 147.89-3.3 147.89-4.15 147.89-7.55Q147.89-8.75 147.79-9.3L147.79-9.3 147.79-10.5 147.99-12.65Q148.14-14.65 148.14-18.4L148.14-18.4Q148.24-24.45 148.89-27.15L148.89-27.15Q149.24-28.6 150.04-29L150.04-29 155.89-28.95Q156.64-28.9 158.04-28.9L158.04-28.9 160.44-28.9Q160.69-28.85 161.37-28.8 162.04-28.75 162.39-28.55L162.39-28.55Q162.69-28.3 162.82-27.88 162.94-27.45 162.94-26.65L162.94-26.65 162.89-26.25 162.89-25.65Q162.74-25.3 162.74-24.95L162.74-24.95Q162.64-24.55 162.69-24.15L162.69-24.15 162.69-23.4Q162.74-23.15 162.74-22.7L162.74-22.7 162.79-22.3 162.79-21.15 162.84-19.55Q162.89-19.05 162.89-18.15L162.89-18.15Q162.99-17.45 163.14-17.2L163.14-17.2Q163.14-16.85 163.09-16.45 163.04-16.05 163.04-15.65L163.04-15.65Q162.99-15.05 162.99-13.85L162.99-13.85Q162.99-12.7 163.04-12.15L163.04-12.15Q163.04-11.35 163.29-10.5L163.29-10.5Q163.79-10.3 164.44-10.3L164.44-10.3Q166.09-10.3 167.87-10.35 169.64-10.4 171.04-10.65L171.04-10.65Q171.34-10.6 171.62-10.25 171.89-9.9 171.89-9.65L171.89-9.65 171.54-1.05Q171.44-0.75 171.14-0.65L171.14-0.65Q170.29-0.25 168.79-0.15L168.79-0.15Q166.79 0.15 166.14 0.15L166.14 0.15 165.29 0.15Q164.29 0.15 163.79 0.2L163.79 0.2Q162.79 0.3 162.39 0.3L162.39 0.3ZM176.64 0.05Q175.69 0.05 175.89-1.65L175.89-1.65Q175.89-2.25 176.14-3L176.14-3Q176.14-3.35 176.19-3.58 176.24-3.8 176.24-3.95L176.24-3.95Q177.39-9.4 178.79-14.7L178.79-14.7 182.19-28Q182.19-28.1 182.34-28.25 182.49-28.4 182.64-28.5L182.64-28.5 182.99-28.5Q183.59-28.5 183.94-28.65L183.94-28.65Q184.24-28.7 184.99-28.7L184.99-28.7Q186.19-28.7 186.79-28.65L186.79-28.65Q187.69-28.5 188.64-28.5L188.64-28.5 191.24-28.55Q191.64-28.65 192.19-28.65L192.19-28.65 194.39-28.75 196.04-28.75Q196.99-28.75 197.89-28.7L197.89-28.7 199.29-28.7Q199.79-28.65 200.74-28.65L200.74-28.65 202.64-28.65Q202.79-28.65 202.94-28.6 203.09-28.55 203.19-28.5L203.19-28.5Q203.39-28.4 203.69-28.4L203.69-28.4 204.14-28.4Q204.49-28.15 204.49-27.9L204.49-27.9 208.04-14.7Q209.69-8.35 210.64-3.95L210.64-3.95Q210.64-3.7 210.79-3L210.79-3Q210.99-2 210.99-1.4L210.99-1.4Q210.99-1.05 210.89-0.45L210.89-0.45Q210.64 0.05 210.19 0.05L210.19 0.05 209.64 0.05Q208.99 0.05 208.64 0L208.64 0 207.54 0 206.49 0 205.64 0Q205.29 0 205.24-0.05L205.24-0.05 202.49-0.05 202.44-0.15Q202.34-0.25 202.14-0.25L202.14-0.25 201.99-0.15Q201.99-0.05 201.89-0.05L201.89-0.05 201.74-0.05 201.39-0.05Q201.14-0.15 200.49-0.15L200.49-0.15Q199.29-0.25 198.49-0.25L198.49-0.25Q197.94-1.4 197.19-5.3L197.19-5.3Q196.14-5.15 194.79-5.15L194.79-5.15 193.49-5.15 192.24-5.15Q192.04-4.4 191.99-3.9L191.99-3.9Q191.94-3.65 191.59-2.2 191.24-0.75 190.94-0.25L190.94-0.25 190.64-0.15Q190.49-0.1 190.39-0.08 190.29-0.05 190.29-0.05L190.29-0.05 190.19-0.05Q189.89-0.05 189.79-0.15L189.79-0.15Q189.59-0.25 189.54-0.25L189.54-0.25 187.64-0.15 186.24-0.15Q185.99-0.1 185.84-0.08 185.69-0.05 185.64-0.05L185.64-0.05 181.64-0.05 181.24-0.05Q180.79 0 179.39 0L179.39 0 178.19 0Q177.89 0.05 177.24 0.05L177.24 0.05 176.64 0.05ZM196.74-10.65Q196.44-12.35 196.39-12.65L196.39-12.65 195.99-15.05Q195.89-15.75 195.79-16.32 195.69-16.9 195.64-17.4L195.64-17.4Q195.49-18 195.41-18.53 195.34-19.05 195.24-19.5L195.24-19.5Q195.19-19.8 195.14-20.28 195.09-20.75 194.99-20.95L194.99-20.95 194.89-21.55Q194.89-21.75 194.79-21.9L194.79-21.9 194.74-22.2Q194.64-21.9 194.64-21.9L194.64-21.9 194.64-21.7 194.64-21.55Q194.64-21.5 194.59-21.38 194.54-21.25 194.49-20.95L194.49-20.95Q194.44-20.7 194.39-20.33 194.34-19.95 194.24-19.5L194.24-19.5 193.89-17.45 193.49-15.15 193.34-14.05Q193.24-13.65 193.14-12.75L193.14-12.75Q192.69-10.5 192.74-10.7L192.74-10.7 194.94-10.7Q194.99-10.75 195.09-10.83 195.19-10.9 195.24-10.9L195.24-10.9 195.39-10.9Q195.64-10.9 195.81-10.85 195.99-10.8 196.14-10.75L196.14-10.75Q196.44-10.65 196.74-10.65L196.74-10.65Z" opacity="1" transform="matrix(1,0,0,1,0,0)" fill="#5e6601" class="wordmark-text-0" data-fill-palette-color="primary" id="text-0"></path></svg></g></svg></g><g transform="matrix(1,0,0,1,0,87.16163583662174)"><svg viewBox="0 0 395.52 44.13055523075244" height="44.13055523075244" width="395.52"><path d="M395.52 0l-7.355 22.065 7.355 22.066h-395.52l7.355-22.066-7.355-22.065z" data-fill-palette-color="tertiary" opacity="1" fill="#5e6601"></path><g transform="matrix(1,0,0,1,19.775999999999982,13.977340887195286)"><svg width="355.968" viewBox="-8.3 -32 720.65 32.75" height="16.17587345636187" data-palette-color="#ffffff"><path d="M12.9-19.4L12.9-19.4-8.3-21.65 13.25-21.65Q13-20.65 12.9-19.4ZM-6.9-26.45L14.6-26.45 13.85-24.25-6.9-26.45ZM-7.85-16.85L12.9-16.85Q13-15.5 13.3-14.6L13.3-14.6-7.85-16.85ZM19.9-9.8L19.9-9.8-6.55-12.05 15-12.05Q16.65-10.45 19.9-9.8ZM-3.15-31.25L18.35-31.25Q17.2-30.5 16.15-29.2L16.15-29.2-3.15-31.25ZM10.55-5.05L-7.4-7.25 11.3-7.25 10.55-5.05ZM8.95-0.2L-8.25-2.4 9.7-2.4 8.95-0.2ZM10.65-0.55L13.45-8.8Q17.65-7.65 21.13-7.65 24.6-7.65 26.8-7.95L26.8-7.95 27.2-10.45 23.05-10.85Q18.3-11.3 16.32-13 14.35-14.7 14.35-17.8L14.35-17.8Q14.35-19.15 14.65-20.8L14.65-20.8Q15.8-27.2 18.85-29.6 21.9-32 28.23-32 34.55-32 39.4-30.75L39.4-30.75 36.8-22.75Q32.45-23.5 29.83-23.5 27.2-23.5 25.3-23.25L25.3-23.25 24.9-20.8 28.25-20.45Q33.35-19.9 35.5-18.03 37.65-16.15 37.65-13L37.65-13Q37.65-9.8 36.3-6.4L36.3-6.4Q35.55-4.65 34.73-3.48 33.9-2.3 32.63-1.48 31.35-0.65 30.3-0.23 29.25 0.2 27.6 0.4L27.6 0.4Q25.3 0.75 21.9 0.75L21.9 0.75Q15.7 0.75 10.65-0.55L10.65-0.55ZM50.55-12.05L50.15-9.8 28.95-12.05 50.55-12.05ZM51.4-16.85L51-14.6 29.8-16.85 51.4-16.85ZM52.25-21.65L51.85-19.4 30.65-21.65 52.25-21.65ZM53.05-26.45L52.7-24.2 31.5-26.45 53.05-26.45ZM28.8-7.25L49.95-7.25 49.95-6.25Q49.95-5.4 50-5L50-5 28.8-7.25ZM51.9-0.15L51.9-0.15 30.7-2.4 50.45-2.4Q51-1 51.9-0.15ZM59.65-7L62.15-7Q63.5-7 64.02-7.33 64.55-7.65 64.75-8.9L64.75-8.9 67.9-26.45 76.3-26.45 73.7-11.55Q72.5-4.55 69.82-1.98 67.15 0.6 60.7 0.6L60.7 0.6Q55.55 0.6 53.5-0.93 51.45-2.45 51.45-6.25L51.45-6.25Q51.45-8.35 52-11.55L52-11.55 54.65-26.45 63.05-26.45 59.65-7ZM100.8-6.2L100.8-6.2 95.95-6.2 94.84 0 86.45 0 91.05-26.45 103.75-26.45Q111-26.45 111-19.6L111-19.6Q111-16.5 110.09-13.9 109.2-11.3 108.15-9.8 107.09-8.3 105.17-7.25 103.25-6.2 100.8-6.2ZM101.3-14.4L101.9-17.8Q101.9-17.85 101.95-18.1L101.95-18.1Q101.95-19.15 99.8-19.15L99.8-19.15 98.2-19.15 97.15-12.95 98.7-12.95Q99.84-12.95 100.5-13.23 101.15-13.5 101.3-14.4L101.3-14.4ZM85.2-2.4L84.8-0.15 63.6-2.4 85.2-2.4ZM86.9-12.05L86.5-9.8 65.3-12.05 86.9-12.05ZM87.75-16.85L87.34-14.6 66.15-16.85 87.75-16.85ZM88.59-21.65L88.2-19.4 67-21.65 88.59-21.65ZM89.4-26.45L89.05-24.2 67.84-26.45 89.4-26.45ZM86.05-7.25L85.65-5 64.45-7.25 86.05-7.25ZM139.79-15.55L138.94-10.75 131.49-10.75 130.89-7.35 140.14-7.35 138.84 0 121.19 0 125.79-26.45 143.39-26.45 141.04-18.95 132.89-18.95 132.29-15.55 139.79-15.55ZM119.94-2.4L119.54-0.15 98.34-2.4 119.94-2.4ZM121.64-12.05L121.24-9.8 100.04-12.05 121.64-12.05ZM122.49-16.85L122.09-14.6 100.89-16.85 122.49-16.85ZM123.34-21.65L122.94-19.4 101.74-21.65 123.34-21.65ZM124.14-26.45L123.79-24.2 102.59-26.45 124.14-26.45ZM120.79-7.25L120.39-5 99.19-7.25 120.79-7.25ZM158.59-26.45L171.29-26.45Q178.59-26.45 178.59-19.85L178.59-19.85Q178.59-16.85 177.39-13.63 176.19-10.4 173.34-8.8L173.34-8.8 176.19 0 166.84 0 164.94-7.7 163.74-7.7 162.39 0 153.99 0 158.59-26.45ZM169.14-16.05L169.44-17.8Q169.44-17.85 169.49-18.3L169.49-18.3Q169.49-19.15 166.84-19.15L166.84-19.15 165.74-19.15 164.94-14.55 166.54-14.55Q168.84-14.55 169.14-16.05L169.14-16.05ZM152.74-2.4L152.34-0.15 131.14-2.4 152.74-2.4ZM154.44-12.05L154.04-9.8 132.84-12.05 154.44-12.05ZM155.29-16.85L154.89-14.6 133.69-16.85 155.29-16.85ZM156.14-21.65L155.74-19.4 134.54-21.65 156.14-21.65ZM156.94-26.45L156.59-24.2 135.39-26.45 156.94-26.45ZM153.59-7.25L153.19-5 131.99-7.25 153.59-7.25ZM207.74-15.55L206.74-9.6 200.14-9.6 198.44 0 190.04 0 194.64-26.45 211.29-26.45 208.99-18.95 201.74-18.95 201.14-15.55 207.74-15.55ZM188.84-2.4L188.44-0.15 167.24-2.4 188.84-2.4ZM190.54-12.05L190.14-9.8 168.94-12.05 190.54-12.05ZM191.39-16.85L190.99-14.6 169.79-16.85 191.39-16.85ZM192.24-21.65L191.84-19.4 170.64-21.65 192.24-21.65ZM193.04-26.45L192.69-24.2 171.49-26.45 193.04-26.45ZM189.69-7.25L189.29-5 168.09-7.25 189.69-7.25ZM242.19 0L233.44 0 233.24-4.05 226.94-4.05 225.39 0 216.74 0 227.84-26.45 240.24-26.45 242.19 0ZM229.59-11.2L233.24-11.2 233.24-18.8 232.54-18.8 229.59-11.2ZM216.09-2.4L215.14-0.2 194.64-2.4 216.09-2.4ZM218.14-7.25L217.19-5.05 196.69-7.25 218.14-7.25ZM220.14-12.05L219.24-9.85 198.74-12.05 220.14-12.05ZM222.19-16.85L221.24-14.65 200.79-16.85 222.19-16.85ZM224.19-21.65L223.29-19.45 202.84-21.65 224.19-21.65ZM226.19-26.45L225.29-24.3 204.89-26.45 226.19-26.45ZM254.03-0.15L233.13-2.4 254.73-2.4 254.03-0.15ZM236.98-21.65L258.53-21.65Q258.23-20.85 257.88-19.4L257.88-19.4 236.98-21.65ZM257.28-15L257.28-15 257.28-14.6 236.08-16.85 257.38-16.85Q257.28-15.65 257.28-15ZM256.33-7.25L255.63-5.05 234.78-7.25 256.33-7.25ZM240.43-26.45L261.98-26.45Q260.63-25.45 259.93-24.35L259.93-24.35 240.43-26.45ZM238.03-12.05L257.73-12.05Q258.18-10.75 259.18-9.8L259.18-9.8 238.03-12.05ZM280.08-25.9L277.68-18.6Q274.28-19.4 271.88-19.4 269.48-19.4 268.33-19.25L268.33-19.25 268.08-17.8 270.58-17.5Q278.63-16.45 278.63-10.85L278.63-10.85Q278.63-10.2 278.33-8.43 278.03-6.65 277.33-5 276.63-3.35 275.56-2.33 274.48-1.3 273.46-0.68 272.43-0.05 270.83 0.2L270.83 0.2Q268.33 0.6 264.16 0.6 259.98 0.6 255.73-0.55L255.73-0.55 258.18-7.95Q262.08-6.85 265.01-6.85 267.93-6.85 269.13-7L269.13-7 269.38-8.6 266.23-8.95Q262.18-9.4 260.48-10.85 258.78-12.3 258.78-15L258.78-15Q258.78-16 259.03-17.5L259.03-17.5Q260.03-22.85 262.63-24.9 265.23-26.95 270.56-26.95 275.88-26.95 280.08-25.9L280.08-25.9ZM313.63-26.45L312.28-18.95 306.88-18.95 303.58 0 294.78 0 298.08-18.95 292.53-18.95 293.88-26.45 313.63-26.45ZM293.68-2.4L293.28-0.15 272.08-2.4 293.68-2.4ZM295.38-12.05L294.98-9.8 273.78-12.05 295.38-12.05ZM296.23-16.85L295.83-14.6 274.63-16.85 296.23-16.85ZM291.43-21.65L291.03-19.4 269.83-21.65 291.43-21.65ZM292.23-26.45L291.88-24.2 270.68-26.45 292.23-26.45ZM294.53-7.25L294.13-5 272.93-7.25 294.53-7.25ZM328.68-12.05L328.28-9.8 312.08-12.05 328.68-12.05ZM329.53-16.85L329.13-14.6 312.93-16.85 329.53-16.85ZM338.58-0.15L317.68-2.4 339.28-2.4 338.58-0.15ZM321.53-21.65L343.08-21.65Q342.78-20.85 342.43-19.4L342.43-19.4 321.53-21.65ZM341.83-15L341.83-15 341.83-14.6 320.63-16.85 341.93-16.85Q341.83-15.65 341.83-15ZM340.88-7.25L340.18-5.05 319.33-7.25 340.88-7.25ZM324.98-26.45L346.53-26.45Q345.18-25.45 344.48-24.35L344.48-24.35 324.98-26.45ZM322.58-12.05L342.28-12.05Q342.73-10.75 343.73-9.8L343.73-9.8 322.58-12.05ZM364.63-25.9L362.23-18.6Q358.83-19.4 356.43-19.4 354.03-19.4 352.88-19.25L352.88-19.25 352.63-17.8 355.13-17.5Q363.18-16.45 363.18-10.85L363.18-10.85Q363.18-10.2 362.88-8.43 362.58-6.65 361.88-5 361.18-3.35 360.1-2.33 359.03-1.3 358-0.68 356.98-0.05 355.38 0.2L355.38 0.2Q352.88 0.6 348.7 0.6 344.53 0.6 340.28-0.55L340.28-0.55 342.73-7.95Q346.63-6.85 349.55-6.85 352.48-6.85 353.68-7L353.68-7 353.93-8.6 350.78-8.95Q346.73-9.4 345.03-10.85 343.33-12.3 343.33-15L343.33-15Q343.33-16 343.58-17.5L343.58-17.5Q344.58-22.85 347.18-24.9 349.78-26.95 355.1-26.95 360.43-26.95 364.63-25.9L364.63-25.9ZM394.27-15.55L393.42-10.75 385.97-10.75 385.37-7.35 394.62-7.35 393.32 0 375.67 0 380.27-26.45 397.87-26.45 395.52-18.95 387.37-18.95 386.77-15.55 394.27-15.55ZM374.42-2.4L374.02-0.15 352.82-2.4 374.42-2.4ZM376.12-12.05L375.72-9.8 354.52-12.05 376.12-12.05ZM376.97-16.85L376.57-14.6 355.37-16.85 376.97-16.85ZM377.82-21.65L377.42-19.4 356.22-21.65 377.82-21.65ZM378.62-26.45L378.27-24.2 357.07-26.45 378.62-26.45ZM375.27-7.25L374.87-5 353.67-7.25 375.27-7.25ZM426.02-8.05L425.22-0.55Q422.52 0.6 417.72 0.6 412.92 0.6 410.65-1.43 408.37-3.45 408.37-7.8L408.37-7.8Q408.37-9.75 408.97-13.2L408.97-13.2Q410.22-20.45 413.3-23.7 416.37-26.95 423.12-26.95L423.12-26.95Q427.97-26.95 429.77-25.85L429.77-25.85 427.22-18.9Q424.72-19.6 422.67-19.6 420.62-19.6 419.8-19.25 418.97-18.9 418.77-17.9L418.77-17.9 416.82-7.2Q417.87-6.95 420.45-6.95 423.02-6.95 426.02-8.05L426.02-8.05ZM387.27-12.05L407.22-12.05Q407.02-10.5 406.97-9.95L406.97-9.95 387.27-12.05ZM388.17-16.85L408.17-16.85 407.72-14.75 388.17-16.85ZM387.47-7.25L406.92-7.25Q406.92-6.45 407.12-5.15L407.12-5.15 387.47-7.25ZM390.17-21.65L409.92-21.65Q409.32-20.35 409.07-19.65L409.07-19.65 390.17-21.65ZM391.82-2.4L407.97-2.4Q408.57-1.2 409.27-0.55L409.27-0.55 391.82-2.4ZM396.87-26.45L414.27-26.45Q413.07-25.75 412.22-24.8L412.22-24.8 396.87-26.45ZM439.92-12.05L439.52-9.8 418.32-12.05 439.92-12.05ZM440.77-16.85L440.37-14.6 419.17-16.85 440.77-16.85ZM441.62-21.65L441.22-19.4 420.02-21.65 441.62-21.65ZM442.42-26.45L442.07-24.2 420.87-26.45 442.42-26.45ZM418.17-7.25L439.32-7.25 439.32-6.25Q439.32-5.4 439.37-5L439.37-5 418.17-7.25ZM441.27-0.15L441.27-0.15 420.07-2.4 439.82-2.4Q440.37-1 441.27-0.15ZM449.02-7L451.52-7Q452.87-7 453.39-7.33 453.92-7.65 454.12-8.9L454.12-8.9 457.27-26.45 465.67-26.45 463.07-11.55Q461.87-4.55 459.19-1.98 456.52 0.6 450.07 0.6L450.07 0.6Q444.92 0.6 442.87-0.93 440.82-2.45 440.82-6.25L440.82-6.25Q440.82-8.35 441.37-11.55L441.37-11.55 444.02-26.45 452.42-26.45 449.02-7ZM480.42-26.45L493.12-26.45Q500.42-26.45 500.42-19.85L500.42-19.85Q500.42-16.85 499.22-13.63 498.02-10.4 495.17-8.8L495.17-8.8 498.02 0 488.67 0 486.77-7.7 485.57-7.7 484.22 0 475.82 0 480.42-26.45ZM490.97-16.05L491.27-17.8Q491.27-17.85 491.32-18.3L491.32-18.3Q491.32-19.15 488.67-19.15L488.67-19.15 487.57-19.15 486.77-14.55 488.37-14.55Q490.67-14.55 490.97-16.05L490.97-16.05ZM474.57-2.4L474.17-0.15 452.97-2.4 474.57-2.4ZM476.27-12.05L475.87-9.8 454.67-12.05 476.27-12.05ZM477.12-16.85L476.72-14.6 455.52-16.85 477.12-16.85ZM477.97-21.65L477.57-19.4 456.37-21.65 477.97-21.65ZM478.77-26.45L478.42-24.2 457.22-26.45 478.77-26.45ZM475.42-7.25L475.02-5 453.82-7.25 475.42-7.25ZM530.46-15.55L529.61-10.75 522.16-10.75 521.56-7.35 530.81-7.35 529.51 0 511.86 0 516.46-26.45 534.06-26.45 531.71-18.95 523.56-18.95 522.96-15.55 530.46-15.55ZM510.61-2.4L510.21-0.15 489.01-2.4 510.61-2.4ZM512.31-12.05L511.91-9.8 490.71-12.05 512.31-12.05ZM513.16-16.85L512.76-14.6 491.56-16.85 513.16-16.85ZM514.01-21.65L513.61-19.4 492.41-21.65 514.01-21.65ZM514.81-26.45L514.46-24.2 493.26-26.45 514.81-26.45ZM511.46-7.25L511.06-5 489.86-7.25 511.46-7.25ZM549.26-26.45L560.51-26.45Q565.96-26.45 568.31-24.5 570.66-22.55 570.66-18.25L570.66-18.25Q570.66-16.2 570.11-13.2L570.11-13.2Q568.86-6.1 565.79-3.05 562.71 0 555.86 0L555.86 0 544.66 0 549.26-26.45ZM559.31-19.15L559.31-19.15 556.41-19.15 554.31-7.15 557.21-7.15Q558.66-7.15 559.44-7.53 560.21-7.9 560.41-9.05L560.41-9.05 561.86-17.3Q561.91-17.5 561.91-18.1L561.91-18.1Q561.91-19.15 559.31-19.15ZM543.41-2.4L543.01-0.15 521.81-2.4 543.41-2.4ZM545.11-12.05L544.71-9.8 523.51-12.05 545.11-12.05ZM545.96-16.85L545.56-14.6 524.36-16.85 545.96-16.85ZM546.81-21.65L546.41-19.4 525.21-21.65 546.81-21.65ZM547.61-26.45L547.26-24.2 526.06-26.45 547.61-26.45ZM544.26-7.25L543.86-5 522.66-7.25 544.26-7.25ZM589.81-12.05L589.41-9.8 573.21-12.05 589.81-12.05ZM590.66-16.85L590.26-14.6 574.06-16.85 590.66-16.85ZM621.3-8L619.9 0 600.9 0 606.4-31.25 615.9-31.25 611.8-8 621.3-8ZM599.8-2.4L599.4-0.15 578.2-2.4 599.8-2.4ZM601.5-12.05L601.1-9.8 579.9-12.05 601.5-12.05ZM602.35-16.85L601.95-14.6 580.75-16.85 602.35-16.85ZM603.2-21.65L602.8-19.4 581.6-21.65 603.2-21.65ZM604-26.45L603.65-24.2 582.45-26.45 604-26.45ZM600.65-7.25L600.25-5 579.05-7.25 600.65-7.25ZM604.85-31.25L604.45-29 583.3-31.25 604.85-31.25ZM630.9-2.4L630.4-0.15 609.3-2.4 630.9-2.4ZM632.05-7.25L631.5-5 610.45-7.25 632.05-7.25ZM633.15-12.05L632.65-9.8 611.6-12.05 633.15-12.05ZM634.3-16.85L633.75-14.6 612.75-16.85 634.3-16.85ZM635.4-21.65L634.9-19.4 613.9-21.65 635.4-21.65ZM636.55-26.45L636-24.2 615.05-26.45 636.55-26.45ZM637.65-31.25L637.15-29 616.2-31.25 637.65-31.25ZM645.05-15.15L641.8 0 631.9 0 639.2-31.25 651.6-31.25 652.5-15.35 652.85-15.35 659.35-31.25 671.75-31.25 668.05 0 658.1 0 660.2-15.15 659.85-15.15 653.6 0 646.35 0 645.3-15.15 645.05-15.15ZM685.85-19.4L685.85-19.4 664.65-21.65 686.2-21.65Q685.95-20.65 685.85-19.4ZM666.05-26.45L687.55-26.45 686.8-24.25 666.05-26.45ZM665.1-16.85L685.85-16.85Q685.95-15.5 686.25-14.6L686.25-14.6 665.1-16.85ZM692.85-9.8L692.85-9.8 666.4-12.05 687.95-12.05Q689.6-10.45 692.85-9.8ZM669.8-31.25L691.3-31.25Q690.15-30.5 689.1-29.2L689.1-29.2 669.8-31.25ZM683.5-5.05L665.55-7.25 684.25-7.25 683.5-5.05ZM681.9-0.2L664.7-2.4 682.65-2.4 681.9-0.2ZM683.6-0.55L686.4-8.8Q690.6-7.65 694.07-7.65 697.55-7.65 699.75-7.95L699.75-7.95 700.15-10.45 696-10.85Q691.25-11.3 689.27-13 687.3-14.7 687.3-17.8L687.3-17.8Q687.3-19.15 687.6-20.8L687.6-20.8Q688.75-27.2 691.8-29.6 694.85-32 701.17-32 707.5-32 712.35-30.75L712.35-30.75 709.75-22.75Q705.4-23.5 702.77-23.5 700.15-23.5 698.25-23.25L698.25-23.25 697.85-20.8 701.2-20.45Q706.3-19.9 708.45-18.03 710.6-16.15 710.6-13L710.6-13Q710.6-9.8 709.25-6.4L709.25-6.4Q708.5-4.65 707.67-3.48 706.85-2.3 705.57-1.48 704.3-0.65 703.25-0.23 702.2 0.2 700.55 0.4L700.55 0.4Q698.25 0.75 694.85 0.75L694.85 0.75Q688.65 0.75 683.6-0.55L683.6-0.55Z" opacity="1" transform="matrix(1,0,0,1,0,0)" fill="#ffffff" class="slogan-text-1" data-fill-palette-color="quaternary" id="text-1"></path></svg></g></svg></g></svg></g></svg></g></svg></g><defs></defs></svg><rect width="395.52" height="131.29219106737418" fill="none" stroke="none" visibility="hidden"></rect></g></svg></g></svg>