<svg xmlns="http://www.w3.org/2000/svg" version="1.1" xmlns:xlink="http://www.w3.org/1999/xlink" xmlns:svgjs="http://svgjs.dev/svgjs" width="2000" height="1500" viewBox="0 0 2000 1500"><rect width="2000" height="1500" fill="#8b3c7f"></rect><g transform="matrix(0.75,0,0,0.75,250.53859095590644,137.37145748987848)"><svg viewBox="0 0 302 247" data-background-color="#8b3c7f" preserveAspectRatio="xMidYMid meet" height="1635" width="2000" xmlns="http://www.w3.org/2000/svg" xmlns:xlink="http://www.w3.org/1999/xlink"><g id="tight-bounds" transform="matrix(1,0,0,1,-0.10821578231349349,-0.09999999999999432)"><svg viewBox="0 0 302.2166520947693 247.2" height="247.2" width="302.2166520947693"><g><svg viewBox="0 0 302.2166520947693 247.2" height="247.2" width="302.2166520947693"><g><svg viewBox="0 0 395.52000000000004 323.5180567394427" height="247.2" width="302.2166520947693"><g transform="matrix(1,0,0,1,0,236.69030519365452)"><svg viewBox="0 0 395.52000000000004 86.82775154578823" height="86.82775154578823" width="395.52000000000004"><g id="textblocktransform"><svg viewBox="0 0 395.52000000000004 86.82775154578823" height="86.82775154578823" width="395.52000000000004" id="textblock"><g><svg viewBox="0 0 395.52000000000004 47.27953871864345" height="47.27953871864345" width="395.52000000000004"><g transform="matrix(1,0,0,1,0,0)"><svg width="395.52000000000004" viewBox="5.927083500029999 -37.5 317.45291649997 37.95" height="47.27953871864345" data-palette-color="#ffffff"><path d="M42.55-28.5Q42.55-26.7 41.78-25.4 41-24.1 39.8-23.43 38.6-22.75 37.4-22.75L37.4-22.75Q36.2-22.75 35.23-23.25 34.25-23.75 33.6-24.6L33.6-24.6 21.55-4.3Q20.2-2 19.05-1 17.9 0 16.45 0L16.45 0Q14.9 0 13.98-1.03 13.05-2.05 12.65-4.3L12.65-4.3 8.45-27.4Q8.3-28.3 7.9-28.85 7.5-29.4 6.85-30.05L6.85-30.05Q6.35-30.5 6.15-30.78 5.95-31.05 5.95-31.45L5.95-31.45Q5.7-33.3 8.15-33.3L8.15-33.3 20.65-33.3Q21.8-33.3 22.4-32.83 23-32.35 22.95-31.55L22.95-31.55Q22.95-31.1 22.78-30.8 22.6-30.5 22.2-30.05L22.2-30.05Q21.75-29.55 21.5-29.1 21.25-28.65 21.25-28L21.25-28Q21.25-27.7 21.3-27.5L21.3-27.5 23.2-15.85 29.85-27.65Q31.6-30.85 33.3-32.18 35-33.5 37.5-33.5L37.5-33.5Q39.8-33.5 41.18-32.18 42.55-30.85 42.55-28.5L42.55-28.5ZM54.5-26.45Q60.25-26.45 63.7-24.33 67.15-22.2 67.15-17.85L67.15-17.85Q67.15-16.2 66.55-14.1L66.55-14.1 64.5-7.2Q64.45-7 64.45-6.7L64.45-6.7Q64.45-5.9 65.1-5.9L65.1-5.9Q65.7-5.9 66.12-6.43 66.55-6.95 66.7-6.95L66.7-6.95Q66.95-6.95 67.12-6.6 67.3-6.25 67.3-5.8L67.3-5.8Q67.35-4.45 66.27-3.05 65.2-1.65 63.4-0.75 61.6 0.15 59.45 0.15L59.45 0.15Q56.85 0.15 55-0.8 53.15-1.75 52.45-3.6L52.45-3.6Q50.95-1.8 48.9-0.83 46.85 0.15 44.5 0.15L44.5 0.15Q41.85 0.15 40.05-0.88 38.25-1.9 37.37-3.53 36.5-5.15 36.5-6.95L36.5-6.95Q36.5-7.75 36.65-8.5L36.65-8.5Q37.45-11.95 40.12-13.7 42.8-15.45 46.5-15.45L46.5-15.45Q50.65-15.45 54.65-14.15L54.65-14.15 55.9-17.45Q56.55-19.55 56.55-20.7L56.55-20.7Q56.5-21.9 55.75-22.5 55-23.1 53.45-23.1L53.45-23.1Q53.75-22.3 53.75-21.45L53.75-21.45Q53.75-19.6 52.35-18.25 50.95-16.9 48.35-16.9L48.35-16.9Q45.9-16.9 44.52-17.98 43.15-19.05 43.15-20.65L43.15-20.65Q43.15-23.15 45.95-24.8 48.75-26.45 54.5-26.45L54.5-26.45ZM51.7-11.3Q50.3-11.3 49.42-10.23 48.55-9.15 48.55-7.9L48.55-7.9Q48.55-7.1 48.92-6.6 49.3-6.1 50-6.1L50-6.1Q50.65-6.1 51.42-6.63 52.2-7.15 52.55-8.2L52.55-8.2 53.6-11.15Q52.75-11.3 51.7-11.3L51.7-11.3ZM103.34-16.75L100.3-6.9Q100.19-6.7 100.19-6.3L100.19-6.3Q100.19-5.95 100.37-5.75 100.55-5.55 100.84-5.55L100.84-5.55Q101.44-5.55 101.87-6.08 102.3-6.6 102.44-6.6L102.44-6.6Q102.69-6.6 102.84-6.28 103-5.95 103-5.5L103-5.5Q103.05-4.05 102.05-2.68 101.05-1.3 99.12-0.43 97.19 0.45 94.5 0.45L94.5 0.45Q91.19 0.45 89.25-1.07 87.3-2.6 87.25-5.15L87.25-5.15Q87.25-7 88.14-9.3L88.14-9.3 90.89-16.5Q91.14-17.15 91.14-17.55L91.14-17.55Q91.14-18.2 90.72-18.57 90.3-18.95 89.69-18.95L89.69-18.95Q88.59-18.95 87.59-17.93 86.59-16.9 86.14-15.4L86.14-15.4 83.05-5.2Q82.84-4.65 82.84-4.15L82.84-4.15Q82.84-3.55 83.09-3.18 83.34-2.8 83.8-2.4L83.8-2.4Q84.14-2.1 84.3-1.85 84.44-1.6 84.34-1.25L84.34-1.25Q84.14-0.6 83.39-0.3 82.64 0 81.05 0L81.05 0 69.64 0Q68.34 0 67.77-0.43 67.19-0.85 67.34-1.55L67.34-1.55Q67.55-2.15 68.39-2.6L68.39-2.6Q69.14-3 69.64-3.55 70.14-4.1 70.5-5.3L70.5-5.3 74.94-19.75Q75.05-20 75.05-20.45L75.05-20.45Q75.05-21 74.82-21.3 74.59-21.6 74.09-22.05L74.09-22.05Q73.59-22.45 73.39-22.75 73.19-23.05 73.34-23.55L73.34-23.55Q73.64-24.7 76.5-25.58 79.34-26.45 82.44-26.45L82.44-26.45Q84.94-26.45 86.39-25.08 87.84-23.7 87.69-21.25L87.69-21.25Q89.75-24.2 92.05-25.33 94.34-26.45 97.05-26.45L97.05-26.45Q100.09-26.45 101.97-24.6 103.84-22.75 103.84-19.8L103.84-19.8Q103.84-18.25 103.34-16.75L103.34-16.75ZM118.14-26.45Q121.04-26.45 122.39-25.35 123.74-24.25 123.74-22.35L123.74-22.35Q123.74-21.2 123.39-20.15L123.39-20.15 118.79-5.2Q118.64-4.6 118.64-4.15L118.64-4.15Q118.64-3.5 118.89-3.13 119.14-2.75 119.59-2.4L119.59-2.4Q119.94-2.05 120.09-1.83 120.24-1.6 120.14-1.25L120.14-1.25Q119.89-0.6 119.14-0.3 118.39 0 116.84 0L116.84 0 105.44 0Q104.14 0 103.54-0.43 102.94-0.85 103.14-1.55L103.14-1.55Q103.34-2.15 104.19-2.6L104.19-2.6Q104.94-3 105.44-3.55 105.94-4.1 106.29-5.3L106.29-5.3 110.64-19.75Q110.79-20.2 110.79-20.5L110.79-20.5Q110.79-21.05 110.54-21.38 110.29-21.7 109.79-22.05L109.79-22.05Q109.29-22.45 109.09-22.75 108.89-23.05 109.04-23.55L109.04-23.55Q109.34-24.7 112.19-25.58 115.04-26.45 118.14-26.45L118.14-26.45ZM121.49-37.5Q123.44-37.5 124.74-36.23 126.04-34.95 126.04-33.1L126.04-33.1Q126.04-31.8 125.37-30.55 124.69-29.3 123.47-28.53 122.24-27.75 120.74-27.75L120.74-27.75Q118.84-27.75 117.57-29.03 116.29-30.3 116.24-32.2L116.24-32.2Q116.24-33.45 116.89-34.68 117.54-35.9 118.74-36.7 119.94-37.5 121.49-37.5L121.49-37.5ZM139.39-36.95Q142.29-36.95 143.67-35.85 145.04-34.75 145.04-32.85L145.04-32.85Q145.04-31.75 144.69-30.7L144.69-30.7 136.84-5.2Q136.69-4.6 136.69-4.15L136.69-4.15Q136.69-3.5 136.94-3.13 137.19-2.75 137.64-2.4L137.64-2.4Q137.99-2.05 138.14-1.83 138.29-1.6 138.19-1.25L138.19-1.25Q137.94-0.6 137.19-0.3 136.44 0 134.89 0L134.89 0 123.49 0Q122.19 0 121.59-0.43 120.99-0.85 121.19-1.55L121.19-1.55Q121.39-2.15 122.24-2.6L122.24-2.6Q122.99-3 123.49-3.55 123.99-4.1 124.34-5.3L124.34-5.3 131.94-30.25Q132.09-30.7 132.09-31L132.09-31Q132.09-31.55 131.81-31.9 131.54-32.25 131.09-32.6L131.09-32.6Q130.59-33 130.37-33.3 130.14-33.6 130.29-34.1L130.29-34.1Q130.59-35.25 133.44-36.1 136.29-36.95 139.39-36.95L139.39-36.95ZM159.59-26.45Q165.34-26.45 168.79-24.33 172.24-22.2 172.24-17.85L172.24-17.85Q172.24-16.2 171.64-14.1L171.64-14.1 169.59-7.2Q169.54-7 169.54-6.7L169.54-6.7Q169.54-5.9 170.19-5.9L170.19-5.9Q170.79-5.9 171.21-6.43 171.64-6.95 171.79-6.95L171.79-6.95Q172.04-6.95 172.21-6.6 172.39-6.25 172.39-5.8L172.39-5.8Q172.44-4.45 171.36-3.05 170.29-1.65 168.49-0.75 166.69 0.15 164.54 0.15L164.54 0.15Q161.94 0.15 160.09-0.8 158.24-1.75 157.54-3.6L157.54-3.6Q156.04-1.8 153.99-0.83 151.94 0.15 149.59 0.15L149.59 0.15Q146.94 0.15 145.14-0.88 143.34-1.9 142.46-3.53 141.59-5.15 141.59-6.95L141.59-6.95Q141.59-7.75 141.74-8.5L141.74-8.5Q142.54-11.95 145.21-13.7 147.89-15.45 151.59-15.45L151.59-15.45Q155.74-15.45 159.74-14.15L159.74-14.15 160.99-17.45Q161.64-19.55 161.64-20.7L161.64-20.7Q161.59-21.9 160.84-22.5 160.09-23.1 158.54-23.1L158.54-23.1Q158.84-22.3 158.84-21.45L158.84-21.45Q158.84-19.6 157.44-18.25 156.04-16.9 153.44-16.9L153.44-16.9Q150.99-16.9 149.61-17.98 148.24-19.05 148.24-20.65L148.24-20.65Q148.24-23.15 151.04-24.8 153.84-26.45 159.59-26.45L159.59-26.45ZM156.79-11.3Q155.39-11.3 154.51-10.23 153.64-9.15 153.64-7.9L153.64-7.9Q153.64-7.1 154.01-6.6 154.39-6.1 155.09-6.1L155.09-6.1Q155.74-6.1 156.51-6.63 157.29-7.15 157.64-8.2L157.64-8.2 158.69-11.15Q157.84-11.3 156.79-11.3L156.79-11.3ZM180.69-17.6Q181.03-19.05 182.13-19.85 183.24-20.65 184.84-20.65L184.84-20.65 196.49-20.65Q199.24-20.65 199.24-18.5L199.24-18.5Q199.24-17.95 199.13-17.6L199.13-17.6Q198.19-14.55 194.94-14.55L194.94-14.55 183.28-14.55Q181.94-14.55 181.24-15.08 180.53-15.6 180.53-16.6L180.53-16.6Q180.53-17.1 180.69-17.6L180.69-17.6ZM231.53-12.9Q232.93-12.9 233.66-12.33 234.38-11.75 234.38-10.7L234.38-10.7Q234.38-10.25 234.23-9.7L234.23-9.7 232.58-3.85Q231.93-1.7 230.76-0.85 229.58 0 227.28 0L227.28 0 203.78 0Q202.73 0 202.16-0.35 201.58-0.7 201.58-1.3L201.58-1.3Q201.58-1.6 201.73-1.95L201.73-1.95Q201.88-2.35 202.23-2.63 202.58-2.9 202.98-3.15L202.98-3.15Q203.78-3.65 204.28-4.17 204.78-4.7 205.13-5.9L205.13-5.9 211.23-27.45Q211.43-28.1 211.43-28.7L211.43-28.7Q211.43-29.25 211.26-29.63 211.08-30 210.78-30.5L210.78-30.5Q210.33-31.15 210.33-31.55L210.33-31.55Q210.33-31.7 210.43-32.1L210.43-32.1Q210.63-32.75 211.31-33.02 211.98-33.3 213.38-33.3L213.38-33.3 225.13-33.3Q226.18-33.3 226.76-32.98 227.33-32.65 227.33-32.05L227.33-32.05Q227.33-31.8 227.18-31.4L227.18-31.4Q227.03-31.05 226.76-30.78 226.48-30.5 226.26-30.38 226.03-30.25 225.93-30.15L225.93-30.15Q225.13-29.7 224.63-29.15 224.13-28.6 223.78-27.45L223.78-27.45 217.33-4.8 220.43-4.8Q221.58-4.8 222.41-5.2 223.23-5.6 224.13-6.7L224.13-6.7 227.58-10.8Q228.53-11.9 229.41-12.4 230.28-12.9 231.53-12.9L231.53-12.9ZM289.13-33.3Q290.18-33.3 290.75-32.98 291.33-32.65 291.33-32.05L291.33-32.05Q291.33-31.8 291.18-31.4L291.18-31.4Q291.03-30.95 290.75-30.73 290.48-30.5 289.93-30.15L289.93-30.15Q289.13-29.7 288.66-29.15 288.18-28.6 287.83-27.45L287.83-27.45 281.73-5.95Q281.53-5.3 281.53-4.7L281.53-4.7Q281.53-4.15 281.71-3.78 281.88-3.4 282.18-2.9L282.18-2.9Q282.38-2.65 282.53-2.38 282.68-2.1 282.68-1.8L282.68-1.8Q282.68-1.7 282.58-1.3L282.58-1.3Q282.38-0.65 281.66-0.35 280.93-0.05 279.58-0.05L279.58-0.05 267.83-0.05Q266.78-0.05 266.2-0.4 265.63-0.75 265.63-1.35L265.63-1.35Q265.63-1.65 265.78-2L265.78-2Q265.93-2.35 266.2-2.63 266.48-2.9 266.7-3.03 266.93-3.15 267.03-3.25L267.03-3.25Q267.83-3.7 268.33-4.25 268.83-4.8 269.18-5.95L269.18-5.95 272.98-19.45 260.03-3.4Q258.43-1.45 257.45-0.73 256.48 0 255.23 0L255.23 0Q254.03 0 253.36-0.78 252.68-1.55 252.13-3.4L252.13-3.4 247.43-18.85 243.73-5.9Q243.53-5.25 243.53-4.65L243.53-4.65Q243.53-4.05 243.71-3.65 243.88-3.25 244.23-2.8L244.23-2.8Q244.68-2.15 244.68-1.75L244.68-1.75Q244.68-1.65 244.58-1.25L244.58-1.25Q244.38-0.55 243.68-0.28 242.98 0 241.58 0L241.58 0 237.43 0Q236.38 0 235.81-0.35 235.23-0.7 235.23-1.3L235.23-1.3Q235.23-1.6 235.38-1.95L235.38-1.95Q235.58-2.5 236.03-2.8 236.48-3.1 236.58-3.15L236.58-3.15Q237.38-3.65 237.88-4.17 238.38-4.7 238.73-5.9L238.73-5.9 244.83-27.5 244.03-30.15Q243.78-30.9 243.78-31.6L243.78-31.6Q243.78-32.5 244.36-32.9 244.93-33.3 246.13-33.3L246.13-33.3 253.88-33.3Q255.38-33.3 256.11-32.65 256.83-32 257.28-30.4L257.28-30.4 262.28-13.8 275.83-30.65Q277.13-32.25 278.38-32.77 279.63-33.3 281.68-33.3L281.68-33.3 289.13-33.3ZM305.88-33.6Q308.68-33.6 311.05-32.93 313.43-32.25 315.88-30.8L315.88-30.8 317.03-31.75Q318.23-32.7 319-33.05 319.78-33.4 320.78-33.4L320.78-33.4Q321.98-33.4 322.68-32.88 323.38-32.35 323.38-31.35L323.38-31.35Q323.38-30.95 323.23-30.5L323.23-30.5 321.13-23.6Q320.78-22.4 320.25-21.9 319.73-21.4 318.68-21.4L318.68-21.4Q317.58-21.4 316.75-22.08 315.93-22.75 314.18-24.85L314.18-24.85Q312.43-26.85 311-27.68 309.58-28.5 308.08-28.5L308.08-28.5Q306.98-28.5 306.23-27.78 305.48-27.05 305.48-26L305.48-26Q305.48-24.8 306.68-23.78 307.88-22.75 310.43-21.2L310.43-21.2Q313.03-19.65 314.73-18.4 316.43-17.15 317.63-15.3 318.83-13.45 318.83-11.05L318.83-11.05Q318.83-9.5 318.33-7.95L318.33-7.95Q317.13-3.95 313.68-1.88 310.23 0.2 305.63 0.2L305.63 0.2Q302.18 0.2 299.83-0.6 297.48-1.4 295.03-3.3L295.03-3.3 293.23-1.8Q291.98-0.75 291.18-0.38 290.38 0 289.38 0L289.38 0Q288.23 0 287.55-0.55 286.88-1.1 286.88-2.05L286.88-2.05Q286.88-2.55 287.08-3.1L287.08-3.1 289.53-10.55Q289.93-11.85 290.63-12.4 291.33-12.95 292.43-12.95L292.43-12.95Q293.58-12.95 294.5-12.15 295.43-11.35 296.93-9.25L296.93-9.25Q298.53-6.95 299.9-6.05 301.28-5.15 303.18-5.15L303.18-5.15Q304.53-5.15 305.25-5.58 305.98-6 306.28-6.95L306.28-6.95Q306.38-7.2 306.38-7.7L306.38-7.7Q306.38-8.9 305.23-9.9 304.08-10.9 301.68-12.3L301.68-12.3Q299.13-13.85 297.53-15.08 295.93-16.3 294.75-18.15 293.58-20 293.58-22.5L293.58-22.5Q293.58-24.25 294.13-25.95L294.13-25.95Q295.18-29.4 298.43-31.5 301.68-33.6 305.88-33.6L305.88-33.6Z" opacity="1" transform="matrix(1,0,0,1,0,0)" fill="#ffffff" class="wordmark-text-0" data-fill-palette-color="primary" id="text-0"></path></svg></g></svg></g><g transform="matrix(1,0,0,1,0,58.441103101185924)"><svg viewBox="0 0 395.52000000000004 28.38664844460231" height="28.38664844460231" width="395.52000000000004"><g transform="matrix(1,0,0,1,0,0)"><svg width="395.52000000000004" viewBox="2.410625 -37.6 638.7793750000001 45.85" height="28.38664844460231" data-palette-color="#ffffff"><path d="M24.9-30.2L24.9-30.2Q23.6-31.75 21.55-32.85 19.5-33.95 16.4-33.95L16.4-33.95Q12.65-33.95 10.5-32.3 8.35-30.65 8.35-27.7L8.35-27.7Q8.35-26.9 8.72-25.85 9.1-24.8 10.25-23.8 11.4-22.8 13.7-22L13.7-22 20.95-19.6Q25.5-18.1 27.4-15.63 29.3-13.15 29.3-9.8L29.3-9.8Q29.3-6.6 27.7-4.28 26.1-1.95 23.15-0.73 20.2 0.5 16.05 0.5L16.05 0.5Q13.05 0.5 10.5-0.23 7.95-0.95 5.98-2.33 4-3.7 2.6-5.75L2.6-5.75Q2.35-6.1 2.43-6.38 2.5-6.65 2.9-6.95L2.9-6.95 4.7-8.2Q5.2-8.5 5.48-8.5 5.75-8.5 5.95-8.2L5.95-8.2Q7.3-6.5 8.6-5.38 9.9-4.25 11.63-3.7 13.35-3.15 15.85-3.15L15.85-3.15Q19.8-3.15 22.25-4.58 24.7-6 24.7-9.3L24.7-9.3Q24.7-10.55 24.2-11.58 23.7-12.6 22.5-13.48 21.3-14.35 19.05-15.2L19.05-15.2 11.45-17.8Q8.7-18.75 7-20.25 5.3-21.75 4.53-23.55 3.75-25.35 3.75-27.25L3.75-27.25Q3.75-30.4 5.35-32.73 6.95-35.05 9.78-36.33 12.6-37.6 16.4-37.6L16.4-37.6Q18.95-37.6 21.08-37 23.2-36.4 24.98-35.3 26.75-34.2 28.1-32.65L28.1-32.65Q28.3-32.45 28.35-32.2 28.4-31.95 28.1-31.7L28.1-31.7 25.8-29.9Q25.55-29.75 25.4-29.83 25.25-29.9 24.9-30.2L24.9-30.2ZM44.9-2.8L44.9-2.8Q47.05-2.8 49.02-3.98 51-5.15 52.95-7.15L52.95-7.15 52.95-25.75Q52.95-26.5 53.75-26.5L53.75-26.5 56.5-26.5Q57.2-26.5 57.2-25.8L57.2-25.8 57.1-0.65Q57.1 0 56.55 0L56.55 0 53.65 0Q53.1 0 53.1-0.55L53.1-0.55 53.1-3.5Q53.1-3.75 53-3.8 52.9-3.85 52.65-3.65L52.65-3.65Q49.9-1.3 47.77-0.4 45.65 0.5 43.55 0.5L43.55 0.5Q41.25 0.5 39.45-0.45 37.65-1.4 36.6-3.13 35.55-4.85 35.55-7.15L35.55-7.15 35.55-25.7Q35.55-26.5 36.3-26.5L36.3-26.5 39.1-26.5Q39.75-26.5 39.75-25.8L39.75-25.8 39.75-8.25Q39.75-5.8 41.12-4.3 42.5-2.8 44.9-2.8L44.9-2.8ZM68.3-26.5L68.3-26.5Q69-26.5 69-25.75L69-25.75 69-23.65Q69-23.25 69.17-23.23 69.35-23.2 69.65-23.45L69.65-23.45Q70.2-24.05 71.15-24.88 72.1-25.7 73.62-26.35 75.15-27 77.5-27L77.5-27Q80.55-27 83.02-25.53 85.5-24.05 86.97-21.1 88.45-18.15 88.45-13.65L88.45-13.65Q88.45-9.15 87-6 85.55-2.85 82.97-1.18 80.4 0.5 76.95 0.5L76.95 0.5Q74.65 0.5 72.87-0.23 71.1-0.95 69.85-2L69.85-2Q69.4-2.4 69.22-2.33 69.05-2.25 69.05-1.7L69.05-1.7 69.05 7.6Q69.05 8.25 68.5 8.25L68.5 8.25 65.4 8.25Q64.85 8.25 64.85 7.6L64.85 7.6 64.85-25.7Q64.85-26.15 65.02-26.33 65.2-26.5 65.65-26.5L65.65-26.5 68.3-26.5ZM69.05-5.85L69.05-5.85Q70.6-4.35 72.22-3.45 73.85-2.55 75.85-2.55L75.85-2.55Q78.25-2.55 80.12-3.8 82-5.05 83.07-7.5 84.15-9.95 84.15-13.6L84.15-13.6Q84.15-17.25 83.05-19.55 81.95-21.85 80.12-22.9 78.3-23.95 76.1-23.95L76.1-23.95Q74.05-23.95 72.45-23.05 70.85-22.15 69.95-20.83 69.05-19.5 69.05-18.2L69.05-18.2 69.05-5.85ZM97.49-11.6L97.49-11.6Q97.49-9.15 98.67-7.13 99.84-5.1 101.82-3.9 103.79-2.7 106.24-2.7L106.24-2.7Q108.74-2.7 110.69-3.73 112.64-4.75 114.04-6.85L114.04-6.85Q114.24-7.05 114.37-7.08 114.49-7.1 114.74-7L114.74-7 116.84-5.95Q117.29-5.7 116.94-5.25L116.94-5.25Q115.59-3.25 113.97-1.98 112.34-0.7 110.34-0.1 108.34 0.5 105.84 0.5L105.84 0.5Q102.14 0.5 99.29-1.2 96.44-2.9 94.79-5.95 93.14-9 93.14-13L93.14-13Q93.14-17.35 94.82-20.48 96.49-23.6 99.37-25.3 102.24-27 105.79-27L105.79-27Q109.44-27 112.14-25.4 114.84-23.8 116.34-20.75 117.84-17.7 117.84-13.4L117.84-13.4Q117.84-13.05 117.77-12.7 117.69-12.35 117.09-12.35L117.09-12.35 97.94-12.35Q97.74-12.35 97.62-12.13 97.49-11.9 97.49-11.6L97.49-11.6ZM97.59-15.1L112.79-15.1Q113.34-15.1 113.49-15.23 113.64-15.35 113.64-15.8L113.64-15.8Q113.64-17.95 112.72-19.83 111.79-21.7 110.07-22.85 108.34-24 105.89-24L105.89-24Q103.19-24 101.34-22.73 99.49-21.45 98.54-19.4 97.59-17.35 97.59-15.1L97.59-15.1ZM124.44 0L124.44 0Q124.09 0 123.92-0.18 123.74-0.35 123.74-0.65L123.74-0.65 123.74-25.85Q123.74-26.5 124.29-26.5L124.29-26.5 127.19-26.5Q127.74-26.5 127.74-25.95L127.74-25.95 127.74-22.7Q127.74-22.4 127.89-22.35 128.04-22.3 128.29-22.55L128.29-22.55Q129.59-24.1 130.87-25.08 132.14-26.05 133.44-26.53 134.74-27 136.04-27L136.04-27Q137.79-27 137.79-26.35L137.79-26.35 137.79-23.35Q137.79-22.85 137.34-22.95L137.34-22.95Q136.89-23 136.32-23.05 135.74-23.1 135.09-23.1L135.09-23.1Q133.99-23.1 132.74-22.63 131.49-22.15 130.42-21.3 129.34-20.45 128.64-19.4 127.94-18.35 127.94-17.3L127.94-17.3 127.94-0.75Q127.94 0 127.19 0L127.19 0 124.44 0ZM156.29-26.5L156.29-26.5Q156.54-26.5 156.66-26.35 156.79-26.2 156.79-26L156.79-26 156.79-23.85Q156.79-23.35 156.29-23.35L156.29-23.35 150.59-23.35Q150.19-23.35 150.19-22.95L150.19-22.95 150.19-0.7Q150.19 0 149.59 0L149.59 0 146.54 0Q145.99 0 145.99-0.65L145.99-0.65 145.99-23Q145.99-23.35 145.64-23.35L145.64-23.35 140.74-23.35Q140.24-23.35 140.24-23.85L140.24-23.85 140.24-26Q140.24-26.2 140.36-26.35 140.49-26.5 140.79-26.5L140.79-26.5 145.54-26.5Q145.99-26.5 145.99-27L145.99-27 145.99-30.65Q145.99-33.8 147.54-35.45 149.09-37.1 152.24-37.1L152.24-37.1 156.39-37.1Q157.04-37.1 157.04-36.5L157.04-36.5 157.04-34.55Q157.04-34.3 156.91-34.18 156.79-34.05 156.49-34.05L156.49-34.05 152.99-34.05Q151.44-34.05 150.76-33.08 150.09-32.1 150.09-30.45L150.09-30.45 150.09-26.95Q150.09-26.5 150.54-26.5L150.54-26.5 156.29-26.5ZM177.09-3.2L177.09-3.2Q175.24-1.4 173.06-0.45 170.89 0.5 168.19 0.5L168.19 0.5Q164.29 0.5 162.06-1.5 159.84-3.5 159.84-6.75L159.84-6.75Q159.84-9.4 161.34-11.33 162.84-13.25 165.79-14.38 168.74-15.5 173.04-15.75L173.04-15.75 176.94-16.05Q177.24-16.1 177.49-16.25 177.74-16.4 177.74-16.8L177.74-16.8 177.74-18.15Q177.74-20.85 176.06-22.43 174.39-24 171.54-24L171.54-24Q169.34-24 167.56-23 165.79-22 164.39-20L164.39-20Q164.19-19.75 164.06-19.68 163.94-19.6 163.64-19.7L163.64-19.7 160.94-20.6Q160.79-20.7 160.71-20.85 160.64-21 160.84-21.4L160.84-21.4Q162.34-24 165.06-25.5 167.79-27 171.74-27L171.74-27Q175.09-27 177.31-25.98 179.54-24.95 180.66-23.03 181.79-21.1 181.79-18.45L181.79-18.45 181.79-0.75Q181.79-0.3 181.64-0.15 181.49 0 181.14 0L181.14 0 178.59 0Q178.24 0 178.09-0.23 177.94-0.45 177.89-0.8L177.89-0.8 177.84-3.1Q177.69-3.8 177.09-3.2L177.09-3.2ZM177.74-12.7L177.74-12.7Q177.74-13.55 177.04-13.5L177.04-13.5 173.74-13.2Q171.44-13.1 169.64-12.63 167.84-12.15 166.59-11.4 165.34-10.65 164.69-9.63 164.04-8.6 164.04-7.25L164.04-7.25Q164.04-5.05 165.56-3.83 167.09-2.6 169.69-2.6L169.69-2.6Q171.29-2.6 172.76-3.18 174.24-3.75 175.34-4.65L175.34-4.65Q176.49-5.6 177.11-6.6 177.74-7.6 177.74-8.55L177.74-8.55 177.74-12.7ZM205.13-20.65L205.13-20.65Q204.13-22.15 202.33-23.1 200.53-24.05 198.03-24.05L198.03-24.05Q195.33-24.05 193.56-22.9 191.78-21.75 191.78-19.8L191.78-19.8Q191.78-18.75 192.58-17.82 193.38-16.9 195.83-16.1L195.83-16.1 202.18-14.2Q205.63-13.25 207.16-11.45 208.68-9.65 208.68-7.3L208.68-7.3Q208.68-4.95 207.28-3.2 205.88-1.45 203.43-0.48 200.98 0.5 197.88 0.5L197.88 0.5Q193.93 0.5 190.98-1.07 188.03-2.65 186.78-5L186.78-5Q186.63-5.25 186.63-5.45 186.63-5.65 186.88-5.8L186.88-5.8 188.83-6.9Q189.08-7.05 189.28-7.03 189.48-7 189.58-6.85L189.58-6.85Q190.43-5.55 191.56-4.6 192.68-3.65 194.26-3.1 195.83-2.55 197.93-2.55L197.93-2.55Q199.83-2.6 201.38-3.1 202.93-3.6 203.83-4.58 204.73-5.55 204.73-6.85L204.73-6.85Q204.73-8.2 203.63-9.18 202.53-10.15 199.83-10.9L199.83-10.9 194.68-12.35Q190.93-13.35 189.41-15.05 187.88-16.75 187.83-19.05L187.83-19.05Q187.83-21.45 189.13-23.23 190.43-25 192.76-26 195.08-27 198.08-27L198.08-27Q201.43-27 204.06-25.73 206.68-24.45 208.03-22.35L208.03-22.35Q208.18-22.15 208.18-21.98 208.18-21.8 207.98-21.65L207.98-21.65 205.88-20.5Q205.68-20.4 205.51-20.43 205.33-20.45 205.13-20.65L205.13-20.65ZM227.53-23.35L221.18-23.35Q220.78-23.35 220.78-22.95L220.78-22.95 220.78-7.1Q220.78-4.75 221.58-3.95 222.38-3.15 223.98-3.15L223.98-3.15 227.43-3.15Q227.68-3.15 227.83-3.03 227.98-2.9 227.98-2.6L227.98-2.6 227.93-0.9Q227.93-0.4 227.33-0.25L227.33-0.25Q226.83-0.15 225.91-0.1 224.98-0.05 224.11-0.03 223.23 0 222.63 0L222.63 0Q219.48 0 218.03-1.48 216.58-2.95 216.58-6.15L216.58-6.15 216.58-22.85Q216.58-23.35 216.08-23.35L216.08-23.35 212.08-23.35Q211.53-23.35 211.53-23.9L211.53-23.9 211.53-26Q211.53-26.5 212.03-26.5L212.03-26.5 216.28-26.5Q216.63-26.5 216.63-26.9L216.63-26.9 217.18-34.85Q217.23-35.5 217.73-35.5L217.73-35.5 220.23-35.5Q220.83-35.5 220.83-34.8L220.83-34.8 220.83-26.9Q220.83-26.5 221.23-26.5L221.23-26.5 227.53-26.5Q228.08-26.5 228.08-26.05L228.08-26.05 228.08-23.9Q228.08-23.35 227.53-23.35L227.53-23.35ZM259.48-3.2L259.48-3.2Q257.63-1.4 255.45-0.45 253.28 0.5 250.57 0.5L250.57 0.5Q246.68 0.5 244.45-1.5 242.22-3.5 242.22-6.75L242.22-6.75Q242.22-9.4 243.72-11.33 245.22-13.25 248.18-14.38 251.13-15.5 255.43-15.75L255.43-15.75 259.32-16.05Q259.63-16.1 259.88-16.25 260.13-16.4 260.13-16.8L260.13-16.8 260.13-18.15Q260.13-20.85 258.45-22.43 256.77-24 253.93-24L253.93-24Q251.72-24 249.95-23 248.18-22 246.78-20L246.78-20Q246.57-19.75 246.45-19.68 246.32-19.6 246.03-19.7L246.03-19.7 243.32-20.6Q243.18-20.7 243.1-20.85 243.03-21 243.22-21.4L243.22-21.4Q244.72-24 247.45-25.5 250.18-27 254.13-27L254.13-27Q257.48-27 259.7-25.98 261.93-24.95 263.05-23.03 264.18-21.1 264.18-18.45L264.18-18.45 264.18-0.75Q264.18-0.3 264.02-0.15 263.88 0 263.52 0L263.52 0 260.98 0Q260.63 0 260.48-0.23 260.32-0.45 260.27-0.8L260.27-0.8 260.23-3.1Q260.07-3.8 259.48-3.2L259.48-3.2ZM260.13-12.7L260.13-12.7Q260.13-13.55 259.43-13.5L259.43-13.5 256.13-13.2Q253.82-13.1 252.03-12.63 250.22-12.15 248.97-11.4 247.72-10.65 247.07-9.63 246.43-8.6 246.43-7.25L246.43-7.25Q246.43-5.05 247.95-3.83 249.47-2.6 252.07-2.6L252.07-2.6Q253.68-2.6 255.15-3.18 256.63-3.75 257.73-4.65L257.73-4.65Q258.88-5.6 259.5-6.6 260.13-7.6 260.13-8.55L260.13-8.55 260.13-12.7ZM272.32 0L272.32 0Q271.62 0 271.62-0.65L271.62-0.65 271.62-25.85Q271.62-26.5 272.17-26.5L272.17-26.5 275.17-26.5Q275.72-26.5 275.72-25.95L275.72-25.95 275.72-23.05Q275.72-22.8 275.82-22.75 275.92-22.7 276.17-22.9L276.17-22.9Q277.82-24.2 279.25-25.13 280.67-26.05 282.17-26.53 283.67-27 285.37-27L285.37-27Q289.27-27 291.35-24.9 293.42-22.8 293.42-19.45L293.42-19.45 293.42-0.8Q293.42 0 292.67 0L292.67 0 289.87 0Q289.52 0 289.37-0.18 289.22-0.35 289.22-0.65L289.22-0.65 289.22-18.5Q289.22-20.95 287.97-22.33 286.72-23.7 284.02-23.7L284.02-23.7Q282.57-23.7 281.3-23.23 280.02-22.75 278.72-21.88 277.42-21 275.82-19.65L275.82-19.65 275.82-0.75Q275.82 0 275.07 0L275.07 0 272.32 0ZM319.67 0L319.67 0Q319.32 0 319.14-0.18 318.97-0.35 318.97-0.7L318.97-0.7 318.97-2.8Q318.97-3.2 318.79-3.25 318.62-3.3 318.32-3L318.32-3Q317.77-2.5 316.74-1.65 315.72-0.8 314.17-0.15 312.62 0.5 310.47 0.5L310.47 0.5Q307.32 0.5 304.82-1 302.32-2.5 300.84-5.48 299.37-8.45 299.37-12.85L299.37-12.85Q299.37-17.1 300.84-20.28 302.32-23.45 304.99-25.23 307.67-27 311.07-27L311.07-27Q313.52-27 315.17-26.2 316.82-25.4 318.07-24.35L318.07-24.35Q318.52-24 318.69-24.08 318.87-24.15 318.87-24.7L318.87-24.7 318.87-36.45Q318.87-37.1 319.42-37.1L319.42-37.1 322.47-37.1Q323.02-37.1 323.02-36.45L323.02-36.45 323.02-0.8Q323.02-0.35 322.87-0.18 322.72 0 322.22 0L322.22 0 319.67 0ZM318.82-20.65L318.82-20.65Q317.27-22.2 315.67-23.05 314.07-23.9 312.07-23.9L312.07-23.9Q309.67-23.9 307.74-22.68 305.82-21.45 304.74-19 303.67-16.55 303.67-13L303.67-13Q303.67-9.35 304.77-7.03 305.87-4.7 307.72-3.63 309.57-2.55 311.77-2.55L311.77-2.55Q313.82-2.55 315.39-3.5 316.97-4.45 317.89-5.85 318.82-7.25 318.82-8.6L318.82-8.6 318.82-20.65ZM357.36-20.65L357.36-20.65Q356.36-22.15 354.56-23.1 352.76-24.05 350.26-24.05L350.26-24.05Q347.56-24.05 345.79-22.9 344.01-21.75 344.01-19.8L344.01-19.8Q344.01-18.75 344.81-17.82 345.61-16.9 348.06-16.1L348.06-16.1 354.41-14.2Q357.86-13.25 359.39-11.45 360.91-9.65 360.91-7.3L360.91-7.3Q360.91-4.95 359.51-3.2 358.11-1.45 355.66-0.48 353.21 0.5 350.11 0.5L350.11 0.5Q346.16 0.5 343.21-1.07 340.26-2.65 339.01-5L339.01-5Q338.86-5.25 338.86-5.45 338.86-5.65 339.11-5.8L339.11-5.8 341.06-6.9Q341.31-7.05 341.51-7.03 341.71-7 341.81-6.85L341.81-6.85Q342.66-5.55 343.79-4.6 344.91-3.65 346.49-3.1 348.06-2.55 350.16-2.55L350.16-2.55Q352.06-2.6 353.61-3.1 355.16-3.6 356.06-4.58 356.96-5.55 356.96-6.85L356.96-6.85Q356.96-8.2 355.86-9.18 354.76-10.15 352.06-10.9L352.06-10.9 346.91-12.35Q343.16-13.35 341.64-15.05 340.11-16.75 340.06-19.05L340.06-19.05Q340.06-21.45 341.36-23.23 342.66-25 344.99-26 347.31-27 350.31-27L350.31-27Q353.66-27 356.29-25.73 358.91-24.45 360.26-22.35L360.26-22.35Q360.41-22.15 360.41-21.98 360.41-21.8 360.21-21.65L360.21-21.65 358.11-20.5Q357.91-20.4 357.74-20.43 357.56-20.45 357.36-20.65L357.36-20.65ZM369.86-11.6L369.86-11.6Q369.86-9.15 371.04-7.13 372.21-5.1 374.19-3.9 376.16-2.7 378.61-2.7L378.61-2.7Q381.11-2.7 383.06-3.73 385.01-4.75 386.41-6.85L386.41-6.85Q386.61-7.05 386.74-7.08 386.86-7.1 387.11-7L387.11-7 389.21-5.95Q389.66-5.7 389.31-5.25L389.31-5.25Q387.96-3.25 386.34-1.98 384.71-0.7 382.71-0.1 380.71 0.5 378.21 0.5L378.21 0.5Q374.51 0.5 371.66-1.2 368.81-2.9 367.16-5.95 365.51-9 365.51-13L365.51-13Q365.51-17.35 367.19-20.48 368.86-23.6 371.74-25.3 374.61-27 378.16-27L378.16-27Q381.81-27 384.51-25.4 387.21-23.8 388.71-20.75 390.21-17.7 390.21-13.4L390.21-13.4Q390.21-13.05 390.14-12.7 390.06-12.35 389.46-12.35L389.46-12.35 370.31-12.35Q370.11-12.35 369.99-12.13 369.86-11.9 369.86-11.6L369.86-11.6ZM369.96-15.1L385.16-15.1Q385.71-15.1 385.86-15.23 386.01-15.35 386.01-15.8L386.01-15.8Q386.01-17.95 385.09-19.83 384.16-21.7 382.44-22.85 380.71-24 378.26-24L378.26-24Q375.56-24 373.71-22.73 371.86-21.45 370.91-19.4 369.96-17.35 369.96-15.1L369.96-15.1ZM407.11-27L407.11-27Q409.71-27 411.69-26.18 413.66-25.35 415.08-23.93 416.51-22.5 417.46-20.8L417.46-20.8Q417.76-20.2 417.21-20.05L417.21-20.05 414.46-19.4Q414.11-19.25 413.81-19.7L413.81-19.7Q412.81-21.15 411.83-22.05 410.86-22.95 409.76-23.43 408.66-23.9 407.36-23.9L407.36-23.9Q404.81-23.9 402.88-22.63 400.96-21.35 399.91-18.95 398.86-16.55 398.86-13.25L398.86-13.25Q398.86-9.9 399.94-7.5 401.01-5.1 402.94-3.85 404.86-2.6 407.46-2.6L407.46-2.6Q409.86-2.6 411.61-3.8 413.36-5 414.81-7.3L414.81-7.3Q414.96-7.55 415.08-7.58 415.21-7.6 415.46-7.5L415.46-7.5 417.61-6.7Q417.96-6.55 417.81-6.05L417.81-6.05Q417.06-4.75 416.06-3.55 415.06-2.35 413.74-1.45 412.41-0.55 410.76-0.03 409.11 0.5 407.11 0.5L407.11 0.5Q403.41 0.5 400.58-1.23 397.76-2.95 396.16-6.03 394.56-9.1 394.56-13.15L394.56-13.15Q394.56-17.25 396.19-20.35 397.81-23.45 400.63-25.23 403.46-27 407.11-27L407.11-27ZM432.21-2.8L432.21-2.8Q434.36-2.8 436.33-3.98 438.31-5.15 440.26-7.15L440.26-7.15 440.26-25.75Q440.26-26.5 441.06-26.5L441.06-26.5 443.81-26.5Q444.51-26.5 444.51-25.8L444.51-25.8 444.41-0.65Q444.41 0 443.86 0L443.86 0 440.96 0Q440.41 0 440.41-0.55L440.41-0.55 440.41-3.5Q440.41-3.75 440.31-3.8 440.21-3.85 439.96-3.65L439.96-3.65Q437.21-1.3 435.08-0.4 432.96 0.5 430.86 0.5L430.86 0.5Q428.56 0.5 426.76-0.45 424.96-1.4 423.91-3.13 422.86-4.85 422.86-7.15L422.86-7.15 422.86-25.7Q422.86-26.5 423.61-26.5L423.61-26.5 426.41-26.5Q427.06-26.5 427.06-25.8L427.06-25.8 427.06-8.25Q427.06-5.8 428.43-4.3 429.81-2.8 432.21-2.8L432.21-2.8ZM452.86 0L452.86 0Q452.5 0 452.33-0.18 452.16-0.35 452.16-0.65L452.16-0.65 452.16-25.85Q452.16-26.5 452.7-26.5L452.7-26.5 455.61-26.5Q456.16-26.5 456.16-25.95L456.16-25.95 456.16-22.7Q456.16-22.4 456.31-22.35 456.45-22.3 456.7-22.55L456.7-22.55Q458-24.1 459.28-25.08 460.56-26.05 461.86-26.53 463.16-27 464.45-27L464.45-27Q466.2-27 466.2-26.35L466.2-26.35 466.2-23.35Q466.2-22.85 465.75-22.95L465.75-22.95Q465.31-23 464.73-23.05 464.16-23.1 463.5-23.1L463.5-23.1Q462.41-23.1 461.16-22.63 459.91-22.15 458.83-21.3 457.75-20.45 457.06-19.4 456.36-18.35 456.36-17.3L456.36-17.3 456.36-0.75Q456.36 0 455.61 0L455.61 0 452.86 0ZM473.45-11.6L473.45-11.6Q473.45-9.15 474.63-7.13 475.8-5.1 477.78-3.9 479.75-2.7 482.2-2.7L482.2-2.7Q484.7-2.7 486.65-3.73 488.6-4.75 490-6.85L490-6.85Q490.2-7.05 490.33-7.08 490.45-7.1 490.7-7L490.7-7 492.8-5.95Q493.25-5.7 492.9-5.25L492.9-5.25Q491.55-3.25 489.93-1.98 488.3-0.7 486.3-0.1 484.3 0.5 481.8 0.5L481.8 0.5Q478.1 0.5 475.25-1.2 472.4-2.9 470.75-5.95 469.1-9 469.1-13L469.1-13Q469.1-17.35 470.78-20.48 472.45-23.6 475.33-25.3 478.2-27 481.75-27L481.75-27Q485.4-27 488.1-25.4 490.8-23.8 492.3-20.75 493.8-17.7 493.8-13.4L493.8-13.4Q493.8-13.05 493.73-12.7 493.65-12.35 493.05-12.35L493.05-12.35 473.9-12.35Q473.7-12.35 473.58-12.13 473.45-11.9 473.45-11.6L473.45-11.6ZM473.55-15.1L488.75-15.1Q489.3-15.1 489.45-15.23 489.6-15.35 489.6-15.8L489.6-15.8Q489.6-17.95 488.68-19.83 487.75-21.7 486.03-22.85 484.3-24 481.85-24L481.85-24Q479.15-24 477.3-22.73 475.45-21.45 474.5-19.4 473.55-17.35 473.55-15.1L473.55-15.1ZM518.55 0L518.55 0Q518.2 0 518.02-0.18 517.85-0.35 517.85-0.7L517.85-0.7 517.85-2.8Q517.85-3.2 517.68-3.25 517.5-3.3 517.2-3L517.2-3Q516.65-2.5 515.63-1.65 514.6-0.8 513.05-0.15 511.5 0.5 509.35 0.5L509.35 0.5Q506.2 0.5 503.7-1 501.2-2.5 499.73-5.48 498.25-8.45 498.25-12.85L498.25-12.85Q498.25-17.1 499.73-20.28 501.2-23.45 503.88-25.23 506.55-27 509.95-27L509.95-27Q512.4-27 514.05-26.2 515.7-25.4 516.95-24.35L516.95-24.35Q517.4-24 517.58-24.08 517.75-24.15 517.75-24.7L517.75-24.7 517.75-36.45Q517.75-37.1 518.3-37.1L518.3-37.1 521.35-37.1Q521.9-37.1 521.9-36.45L521.9-36.45 521.9-0.8Q521.9-0.35 521.75-0.18 521.6 0 521.1 0L521.1 0 518.55 0ZM517.7-20.65L517.7-20.65Q516.15-22.2 514.55-23.05 512.95-23.9 510.95-23.9L510.95-23.9Q508.55-23.9 506.63-22.68 504.7-21.45 503.63-19 502.55-16.55 502.55-13L502.55-13Q502.55-9.35 503.65-7.03 504.75-4.7 506.6-3.63 508.45-2.55 510.65-2.55L510.65-2.55Q512.7-2.55 514.27-3.5 515.85-4.45 516.77-5.85 517.7-7.25 517.7-8.6L517.7-8.6 517.7-20.65ZM541.35-36.4L541.35-36.4Q541.35-37.1 541.95-37.1L541.95-37.1 545.54-37.1Q546.14-37.1 546.14-36.45L546.14-36.45 546.14-4.2Q546.14-3.7 546.64-3.7L546.64-3.7 563.95-3.7Q564.54-3.7 564.54-3.2L564.54-3.2 564.54-0.55Q564.54-0.3 564.39-0.15 564.25 0 563.95 0L563.95 0 542.04 0Q541.64 0 541.5-0.18 541.35-0.35 541.35-0.7L541.35-0.7 541.35-36.4ZM572.14 0L572.14 0Q571.44 0 571.44-0.75L571.44-0.75 571.44-36.4Q571.44-37.1 572.04-37.1L572.04-37.1 576.84-37.1Q577.24-37.1 577.42-37 577.59-36.9 577.69-36.55L577.69-36.55 588.79-7.9Q588.99-7.45 589.19-7.48 589.39-7.5 589.59-7.95L589.59-7.95 600.69-36.45Q600.89-37.1 601.44-37.1L601.44-37.1 606.49-37.1Q607.04-37.1 607.04-36.45L607.04-36.45 607.04-0.75Q607.04 0 606.29 0L606.29 0 602.99 0Q602.59 0 602.42-0.15 602.24-0.3 602.24-0.65L602.24-0.65 602.24-29.25Q602.24-29.5 602.14-29.48 602.04-29.45 601.99-29.25L601.99-29.25 590.99-0.65Q590.74 0 590.04 0L590.04 0 587.64 0Q586.84 0 586.64-0.6L586.64-0.6 575.79-28.95Q575.69-29.2 575.62-29.18 575.54-29.15 575.54-28.95L575.54-28.95 575.54-0.65Q575.54-0.3 575.39-0.15 575.24 0 574.84 0L574.84 0 572.14 0ZM636.79-30.2L636.79-30.2Q635.49-31.75 633.44-32.85 631.39-33.95 628.29-33.95L628.29-33.95Q624.54-33.95 622.39-32.3 620.24-30.65 620.24-27.7L620.24-27.7Q620.24-26.9 620.61-25.85 620.99-24.8 622.14-23.8 623.29-22.8 625.59-22L625.59-22 632.84-19.6Q637.39-18.1 639.29-15.63 641.19-13.15 641.19-9.8L641.19-9.8Q641.19-6.6 639.59-4.28 637.99-1.95 635.04-0.73 632.09 0.5 627.94 0.5L627.94 0.5Q624.94 0.5 622.39-0.23 619.84-0.95 617.86-2.33 615.89-3.7 614.49-5.75L614.49-5.75Q614.24-6.1 614.31-6.38 614.39-6.65 614.79-6.95L614.79-6.95 616.59-8.2Q617.09-8.5 617.36-8.5 617.64-8.5 617.84-8.2L617.84-8.2Q619.19-6.5 620.49-5.38 621.79-4.25 623.51-3.7 625.24-3.15 627.74-3.15L627.74-3.15Q631.69-3.15 634.14-4.58 636.59-6 636.59-9.3L636.59-9.3Q636.59-10.55 636.09-11.58 635.59-12.6 634.39-13.48 633.19-14.35 630.94-15.2L630.94-15.2 623.34-17.8Q620.59-18.75 618.89-20.25 617.19-21.75 616.41-23.55 615.64-25.35 615.64-27.25L615.64-27.25Q615.64-30.4 617.24-32.73 618.84-35.05 621.66-36.33 624.49-37.6 628.29-37.6L628.29-37.6Q630.84-37.6 632.96-37 635.09-36.4 636.86-35.3 638.64-34.2 639.99-32.65L639.99-32.65Q640.19-32.45 640.24-32.2 640.29-31.95 639.99-31.7L639.99-31.7 637.69-29.9Q637.44-29.75 637.29-29.83 637.14-29.9 636.79-30.2L636.79-30.2Z" opacity="1" transform="matrix(1,0,0,1,0,0)" fill="#ffffff" class="slogan-text-1" data-fill-palette-color="secondary" id="text-1"></path></svg></g></svg></g></svg></g></svg></g><g transform="matrix(1,0,0,1,90.57641178571522,0)"><svg viewBox="0 0 214.3671764285696 214.3671764285696" height="214.3671764285696" width="214.3671764285696"><g><svg></svg></g><g id="icon-0"><svg viewBox="0 0 214.3671764285696 214.3671764285696" height="214.3671764285696" width="214.3671764285696"><g><path d="M0 107.184c0-59.196 47.988-107.184 107.184-107.184 59.196 0 107.184 47.988 107.183 107.184 0 59.196-47.988 107.184-107.183 107.183-59.196 0-107.184-47.988-107.184-107.183zM107.184 210.103c56.841 0 102.92-46.079 102.919-102.919 0-56.841-46.079-102.92-102.919-102.92-56.841 0-102.92 46.079-102.92 102.92 0 56.841 46.079 102.92 102.92 102.919z" data-fill-palette-color="accent" fill="#ffffff" stroke="transparent"></path></g><g transform="matrix(1,0,0,1,42.445050571370956,65.68115152416543)"><svg viewBox="0 0 129.47707528582768 83.00487338023873" height="83.00487338023873" width="129.47707528582768"><g><svg xmlns="http://www.w3.org/2000/svg" xmlns:xlink="http://www.w3.org/1999/xlink" version="1.1" x="0" y="0" viewBox="1.83 17.401000000000003 97.16449999999999 62.29" enable-background="new 0 0 100 100" xml:space="preserve" height="83.00487338023873" width="129.47707528582768" class="icon-cg-0" data-fill-palette-color="accent" id="cg-0"><path d="M92.636 59.5c-20.558 0-41.119 0-61.677 0-2.37 0-2.37 3.671 0 3.671 20.558 0 41.119 0 61.677 0C95.006 63.17 95.006 59.5 92.636 59.5L92.636 59.5z" fill="#ffffff" data-fill-palette-color="accent"></path><path d="M97.289 49.044c-19.01 0-38.021 0-57.03 0-2.276 0-2.276 3.531 0 3.531 19.008 0 38.02 0 57.03 0C99.563 52.575 99.563 49.044 97.289 49.044L97.289 49.044z" fill="#ffffff" data-fill-palette-color="accent"></path><path d="M86.028 38.695c-20.559 0-41.119 0-61.678 0-2.369 0-2.369 3.67 0 3.67 20.559 0 41.119 0 61.678 0C88.396 42.367 88.396 38.695 86.028 38.695L86.028 38.695z" fill="#ffffff" data-fill-palette-color="accent"></path><path d="M28.754 79.691c-8.907 0-16.154-7.247-16.154-16.154 0-0.508 0.052-0.958 0.118-1.367C6.297 59.959 1.83 53.851 1.83 46.895c0-8.909 7.247-16.155 16.155-16.155 0.514 0 1.028 0.023 1.539 0.072 1.185-7.696 7.718-13.411 15.838-13.411 7.641 0 14.298 5.426 15.826 12.901 0.228 1.125-0.496 2.226-1.622 2.456-1.123 0.227-2.229-0.496-2.458-1.624-1.133-5.547-6.074-9.571-11.749-9.571-6.655 0-11.868 5.173-11.868 11.777 0 0.69-0.341 1.337-0.915 1.725-0.571 0.386-1.298 0.465-1.939 0.209l-0.41-0.164c-0.735-0.139-1.489-0.21-2.244-0.21-6.613 0-11.992 5.379-11.992 11.994 0 5.718 4.064 10.666 9.664 11.767 0.617 0.12 1.145 0.516 1.439 1.067 0.293 0.557 0.32 1.215 0.074 1.793l-0.177 0.414c-0.023 0.124-0.048 0.246-0.071 0.367-0.09 0.468-0.162 0.838-0.162 1.234 0 6.613 5.379 11.992 11.992 11.992 4.884 0 9.24-2.916 11.099-7.434 0.435-1.063 1.652-1.571 2.715-1.134s1.571 1.653 1.133 2.716C41.2 75.762 35.333 79.691 28.754 79.691z" fill="#ffffff" data-fill-palette-color="accent"></path></svg></g></svg></g></svg></g></svg></g><g></g></svg></g></svg></g><defs></defs></svg><rect width="302.2166520947693" height="247.2" fill="none" stroke="none" visibility="hidden"></rect></g></svg></g></svg>